<svg version="1.1" id="Layer_1" xmlns="http://www.w3.org/2000/svg" xmlns:xlink="http://www.w3.org/1999/xlink" x="0px" y="0px"
	 width="100%" viewBox="0 0 315 315" enable-background="new 0 0 315 315" xml:space="preserve">
<path fill="#000000" opacity="1.000000" stroke="none" 
	d="
M162.000000,316.000000 
	C108.358284,316.000000 54.716568,316.000000 1.037426,316.000000 
	C1.037426,211.073776 1.037426,106.147537 1.037426,1.110650 
	C105.877319,1.110650 210.754791,1.110650 316.000000,1.110650 
	C316.000000,50.686954 316.000000,100.374817 315.664551,150.765396 
	C313.360413,147.630157 311.987946,143.288773 309.276733,140.077744 
	C305.635254,135.764908 304.421692,131.264465 305.076233,125.555367 
	C304.937927,123.997986 304.851562,122.822159 304.704437,120.819359 
	C304.060028,122.873062 303.681549,124.079208 303.073914,125.508347 
	C302.384003,126.342972 301.923187,126.954605 300.800476,128.444839 
	C298.701019,122.401482 296.900787,117.005524 294.937714,111.669464 
	C294.104401,109.404366 292.929474,107.264908 291.944122,104.600540 
	C292.012024,100.106445 292.045593,96.080162 292.430481,92.045441 
	C294.848389,94.568932 297.029633,97.017281 298.951233,99.654839 
	C301.138672,102.657333 303.094330,105.828720 305.087769,109.267410 
	C305.011505,110.067154 304.998199,110.526192 304.627136,111.144455 
	C304.506958,113.221176 304.744537,115.138657 304.995483,117.401001 
	C305.126617,118.222527 305.244415,118.699188 305.362213,119.175858 
	C305.696655,119.113281 306.031128,119.050705 306.365570,118.988129 
	C305.935791,115.653542 305.505981,112.318962 305.168396,108.614517 
	C306.596771,102.368149 299.921021,91.775917 292.888428,88.519882 
	C292.206726,86.483284 291.669769,84.770561 291.425842,82.847000 
	C289.456940,66.310791 277.528717,59.309971 263.923462,54.078835 
	C261.961182,53.324352 259.442139,53.485863 259.542603,57.123001 
	C262.289001,65.609116 267.551575,72.367050 274.343750,77.743896 
	C279.213531,81.598938 284.746002,84.616867 290.014191,88.283669 
	C290.094330,88.737228 290.143127,88.915390 290.128052,89.457619 
	C290.101776,90.555885 290.139465,91.290092 290.114563,92.434204 
	C290.357178,94.602417 290.662384,96.360718 290.981171,98.531982 
	C291.322021,100.969551 291.649323,102.994156 291.848083,105.404388 
	C291.510345,106.393608 291.158630,106.986710 291.113312,107.602364 
	C290.485321,116.128479 295.184570,122.738144 299.050049,129.663284 
	C300.272980,131.854279 302.308777,133.531479 300.323547,136.913651 
	C299.024475,139.126846 300.078369,142.721146 300.078369,145.696854 
	C300.757080,145.734146 301.435791,145.771423 302.114502,145.808701 
	C302.648926,143.332382 303.183380,140.856049 303.832550,137.848099 
	C314.899506,152.392197 313.172546,165.423904 308.082214,173.843307 
	C305.910095,166.043503 303.845581,158.630142 301.685638,150.874100 
	C298.653717,156.309464 301.933350,171.024765 306.940613,176.400574 
	C306.961060,177.488098 306.970306,178.213211 306.661072,179.074677 
	C301.607574,186.961975 296.146332,194.388199 292.469147,202.612122 
	C290.833099,206.271057 288.049072,211.228302 291.159790,216.357483 
	C290.378082,218.883942 289.693604,221.006256 288.691711,223.128540 
	C288.331177,223.786972 288.288055,224.445450 288.180847,225.488953 
	C288.717133,228.217957 289.317535,230.561935 289.960541,233.245560 
	C289.974731,234.040604 289.946381,234.496033 289.594055,235.122223 
	C288.615845,236.564789 287.594025,237.774872 287.368378,239.118652 
	C286.124634,246.525177 281.521545,251.612366 275.713928,256.206390 
	C274.300018,256.836914 273.203857,257.406677 272.210876,257.617950 
	C275.115540,250.441772 277.959045,243.640793 280.681671,236.791748 
	C281.199615,235.488724 281.239136,233.995529 281.499390,232.590088 
	C280.946594,232.435608 280.393799,232.281143 279.840973,232.126663 
	C274.517548,239.199310 271.179291,247.161331 269.921478,256.374847 
	C269.295929,258.682922 268.998779,260.901123 266.090942,261.025665 
	C265.713837,261.041748 265.309265,262.928589 265.116486,263.985229 
	C264.946472,264.916992 265.450287,266.216766 264.975983,266.808289 
	C261.868103,270.684204 258.804016,274.646515 255.258652,278.101440 
	C253.073486,280.230835 250.062027,281.512329 246.791031,283.571411 
	C254.827423,284.258392 262.525513,278.970764 266.567261,270.985382 
	C268.158264,267.842072 270.178619,264.916077 272.312775,261.907806 
	C273.138031,261.302063 273.653992,260.679596 274.385132,260.017700 
	C274.600342,259.978271 275.013580,259.834229 275.356628,259.787781 
	C283.209747,256.033051 288.066315,250.044586 290.390503,242.090897 
	C291.047455,239.842865 290.873840,237.352112 291.043213,234.587448 
	C291.012329,233.172012 291.019379,232.141830 291.349854,230.961624 
	C291.720367,229.883347 291.767426,228.955078 291.887665,227.632065 
	C292.309204,225.232391 292.657593,223.227463 293.328430,221.127319 
	C294.195587,220.699570 294.740204,220.367035 295.475220,219.989807 
	C295.914062,219.796722 296.034119,219.577911 296.309692,219.094147 
	C303.318298,212.273712 310.261597,205.737198 311.598297,195.690918 
	C312.323517,190.240280 312.432098,184.767868 309.005463,179.598083 
	C308.999512,178.811172 309.011444,178.361313 309.352051,177.803223 
	C311.118225,175.494583 312.517426,173.267654 314.013306,171.107727 
	C314.556824,170.322937 315.331055,169.697922 316.000000,169.000000 
	C316.000000,217.925735 316.000000,266.851471 316.000000,316.000000 
	C268.979340,316.000000 221.958328,316.000000 174.293320,315.632996 
	C178.347137,312.900299 183.011292,310.462921 187.771301,308.229828 
	C188.718155,307.785583 190.082458,307.895477 191.168808,308.135956 
	C202.791992,310.708923 212.951736,308.111603 221.139282,299.341339 
	C224.728333,295.496887 227.782898,291.153473 231.163269,287.362885 
	C232.166824,287.467896 233.087265,287.246704 234.259903,287.003418 
	C234.676498,286.943085 234.840897,286.904877 235.329971,286.939270 
	C236.134888,286.681824 236.615128,286.351746 237.440781,286.009003 
	C238.658554,285.950897 239.530914,285.905396 240.403259,285.859894 
	C240.430695,285.673126 240.458130,285.486389 240.485565,285.299622 
	C239.953262,285.162750 239.420959,285.025848 238.735931,284.577026 
	C237.341736,283.867737 236.100235,283.470337 234.986298,282.759338 
	C235.132065,281.691284 235.150299,280.936890 235.168533,280.182465 
	C234.143585,281.128815 233.118637,282.075134 231.999237,283.319641 
	C231.315414,284.783905 231.720642,286.184021 229.073868,285.955841 
	C225.161743,285.618591 220.708725,285.957001 217.207153,287.571564 
	C208.824646,291.436798 200.372040,295.529175 192.910080,300.873535 
	C188.216858,304.234894 184.292557,304.594513 179.437576,302.993164 
	C177.609177,302.390106 175.788544,301.763550 173.545837,301.057007 
	C171.708862,300.743225 170.258560,300.641083 168.877213,300.277130 
	C160.668289,298.114319 152.713058,299.333435 144.614777,301.981567 
	C144.381592,302.007172 143.938568,302.161713 143.584549,302.091064 
	C142.519424,302.089722 141.808334,302.158997 140.775024,302.080078 
	C138.326950,300.818756 136.293503,299.447418 134.055893,298.646393 
	C129.430817,296.990692 124.696999,295.638733 119.639267,293.942932 
	C111.819069,293.515320 104.367500,293.306610 96.831268,292.758179 
	C91.291229,286.563202 86.174583,280.336945 80.283646,274.958801 
	C74.582695,269.754120 68.166519,265.251099 59.990086,264.717407 
	C60.071945,262.869019 60.466366,261.172852 59.904015,259.899139 
	C53.861675,246.213425 41.630730,238.813828 30.027870,230.565948 
	C30.032127,230.335922 29.851612,229.912201 29.890133,229.494110 
	C29.625881,227.029999 29.323105,224.983994 29.015646,222.605255 
	C28.951523,221.834473 28.892086,221.396408 28.891594,220.520447 
	C28.528379,216.083221 28.106222,212.083893 27.684065,208.084579 
	C27.203022,208.132050 26.721979,208.179535 26.240936,208.227005 
	C26.547466,212.170944 26.853998,216.114883 27.104179,220.480408 
	C26.988337,222.884949 26.928843,224.867905 26.523130,226.891479 
	C18.353523,220.522247 15.956919,212.099991 16.723303,202.324493 
	C16.962784,199.269852 16.338005,196.147446 16.484291,193.045197 
	C17.903419,193.832001 19.352184,194.414017 19.913525,195.468460 
	C21.489965,198.429672 22.598063,201.637726 24.119547,204.632217 
	C24.562862,205.504730 25.774391,205.986908 26.633785,206.647995 
	C26.887465,205.713562 27.652845,204.491776 27.314720,203.889709 
	C24.332745,198.580017 21.154619,193.380478 18.351545,187.988846 
	C18.721617,186.913223 18.774654,185.997147 18.935879,184.803894 
	C19.304485,184.024399 19.564901,183.522064 19.883018,182.585724 
	C20.223022,176.427185 20.505327,170.702698 20.862598,164.590759 
	C18.970989,157.830750 17.101700,151.425003 14.950850,145.115219 
	C14.549501,143.937820 13.018467,143.145508 11.708037,142.028656 
	C11.002843,141.753983 10.257557,141.482452 10.242279,141.518692 
	C8.494757,145.663696 6.801552,149.831619 5.070756,154.454895 
	C4.977522,158.260193 4.918890,161.608871 4.551828,165.143127 
	C5.472355,168.944305 6.145424,172.895050 8.071748,176.090195 
	C10.450554,180.035843 13.871140,183.353409 16.523949,187.131866 
	C15.866914,189.207642 15.527509,191.093933 15.096189,193.292633 
	C12.557633,202.761566 11.657748,211.967972 16.898609,220.399399 
	C19.588331,224.726593 21.490900,230.414215 28.074532,231.297638 
	C28.562012,232.108109 28.950857,232.612091 29.247881,233.424438 
	C29.175022,234.159210 29.193985,234.585602 29.133842,235.345642 
	C29.371479,236.411346 29.688221,237.143387 30.344921,237.810181 
	C32.070808,237.620667 33.823204,236.887238 34.785931,237.466415 
	C44.324791,243.205063 52.086281,250.708572 56.544777,260.922791 
	C50.000301,260.998383 45.129704,258.099182 40.841545,254.128143 
	C38.087021,251.577316 35.637192,248.697449 33.050785,245.965073 
	C32.668388,246.220428 32.285988,246.475800 31.903585,246.731171 
	C32.428768,248.175812 32.600628,249.925171 33.539104,251.013367 
	C38.070770,256.268005 43.554344,260.387360 50.038979,262.883636 
	C52.854298,263.967407 55.999367,264.194580 59.231750,264.867065 
	C59.468834,264.923309 59.952034,264.986603 59.998146,265.386292 
	C62.027386,276.330658 67.557968,284.616211 76.111290,290.963593 
	C80.242737,294.029510 84.651604,296.202087 90.405754,295.159607 
	C92.593033,295.355682 94.403412,295.436554 96.389816,295.564880 
	C96.565834,295.612366 96.929077,295.643921 96.971832,295.985626 
	C97.053505,296.552673 97.092407,296.777985 97.147583,297.344360 
	C105.000168,306.021332 114.387047,310.439392 126.026413,308.889648 
	C127.108711,308.745514 128.066452,307.665955 129.397217,307.006531 
	C130.131256,307.028900 130.550110,307.065491 131.183380,307.410431 
	C134.929703,307.106262 138.461609,306.493744 142.308044,305.848328 
	C144.194763,306.495178 145.733078,307.297028 147.368027,307.750275 
	C147.690567,307.839661 148.385406,306.585968 148.926514,305.685547 
	C148.649979,305.246063 148.355499,305.072662 148.044540,304.948730 
	C148.028061,304.998199 148.090210,304.914398 148.067413,304.605194 
	C147.994156,303.886261 147.943680,303.476532 148.162476,303.062988 
	C148.609070,303.087189 148.786407,303.115265 149.196747,303.427063 
	C156.625702,302.302460 163.814468,302.062531 171.397156,303.894958 
	C175.663406,304.827789 179.523407,305.708527 183.771622,306.677826 
	C174.206772,313.510223 163.996567,312.856720 153.352875,310.174683 
	C155.453781,312.046631 157.639908,312.939575 159.727264,314.022797 
	C160.593567,314.472351 161.248795,315.328674 162.000000,316.000000 
M92.908310,197.716324 
	C92.908310,197.716324 92.712158,197.635635 92.232391,197.508789 
	C92.232391,197.508789 91.972710,197.931671 91.322891,198.301529 
	C88.888603,198.848907 86.454315,199.396286 83.675140,199.354568 
	C82.372704,197.959747 80.374779,196.766785 79.900215,195.131683 
	C78.558105,190.507401 77.840195,185.701965 76.896362,180.073669 
	C76.607979,176.163666 76.028877,172.249344 76.086922,168.344482 
	C76.247078,157.568863 76.746277,146.798248 76.903206,136.022644 
	C76.922882,134.671799 75.692413,133.302765 74.685715,131.488907 
	C73.212463,131.995987 71.739212,132.503082 69.460381,132.902512 
	C68.949646,133.577835 68.438904,134.253143 67.983452,134.980362 
	C67.983452,134.980362 67.983231,134.904541 67.193306,135.308228 
	C67.177032,147.844681 67.160751,160.381149 67.035385,173.801453 
	C67.739021,177.815781 68.442657,181.830124 69.134590,186.437790 
	C69.430931,188.222946 69.742981,190.005676 70.020912,191.793686 
	C71.303787,200.046478 81.166321,205.745071 89.796600,202.913513 
	C92.553719,200.622513 95.310829,198.331512 98.652740,195.778549 
	C99.287781,194.973663 99.922813,194.168793 100.605682,193.303299 
	C101.399277,194.231781 102.185081,195.151154 102.998795,196.009232 
	C102.998795,196.009232 102.934044,195.990723 103.117699,196.504242 
	C103.411171,196.707535 103.704643,196.910812 103.937859,197.854889 
	C105.656349,199.523773 107.374840,201.192673 109.595482,203.063385 
	C110.044395,203.332962 110.493301,203.602524 111.762131,204.014908 
	C112.866737,203.960129 113.971336,203.905350 115.731895,203.649292 
	C118.084061,202.197571 120.436226,200.745865 122.936409,199.202805 
	C123.141747,199.371353 124.077591,200.139572 125.685898,201.262482 
	C130.395798,202.425217 131.676483,201.491409 132.025818,196.943222 
	C132.661438,188.668091 133.398788,180.400803 134.667618,171.713745 
	C137.735016,167.736801 140.802414,163.759857 144.437805,160.193268 
	C144.850464,161.453140 145.263123,162.712997 146.011795,164.862350 
	C146.007782,175.772049 145.965210,186.682053 146.046112,197.591110 
	C146.056839,199.037064 146.695786,200.478363 147.889023,202.011398 
	C154.807983,202.048828 155.004044,201.730164 155.175690,194.730545 
	C155.351898,187.545685 155.791885,180.367325 156.719498,172.765121 
	C158.160706,167.536194 160.597260,163.071793 166.510269,161.279251 
	C167.313812,165.100571 168.543228,168.890656 168.826324,172.750153 
	C169.315277,179.416199 168.539871,186.227997 169.535263,192.790512 
	C170.785446,201.032669 178.889984,204.737640 182.219894,201.232376 
	C180.647324,198.425247 178.402451,196.103683 178.084457,193.542847 
	C177.014954,184.930008 176.575317,176.235687 176.004257,167.565308 
	C175.584656,161.194534 172.445404,158.199524 165.333603,158.314529 
	C161.171417,158.382706 158.881744,160.936874 157.037155,164.303665 
	C156.314041,165.623520 155.039658,166.641342 154.050568,167.042709 
	C152.236389,159.894699 149.142578,157.517166 143.220032,159.097870 
	C141.559525,159.525864 139.553787,159.510681 138.312851,160.477310 
	C135.978561,162.295609 134.085663,164.680542 132.012436,165.973877 
	C132.007004,156.953033 131.806885,156.780426 124.556686,159.925201 
	C124.339111,160.231003 124.121536,160.536804 123.168831,161.334534 
	C123.171349,171.134201 123.173866,180.933884 123.009705,191.317871 
	C122.985275,191.518921 122.960846,191.719986 122.271744,192.191650 
	C119.554092,195.180740 116.836433,198.169830 113.454292,200.804352 
	C112.281952,195.187073 111.109604,189.569809 109.976929,183.019455 
	C109.984367,167.303879 110.015343,151.588211 109.956657,135.872879 
	C109.951706,134.547958 109.345726,133.225266 109.024704,131.978104 
	C109.024704,131.978104 109.078102,131.922928 109.107391,131.138992 
	C107.089935,129.304794 106.846535,129.348587 103.736343,132.544754 
	C102.859810,133.044296 101.983276,133.543854 100.227936,134.256912 
	C100.180649,150.167236 100.133362,166.077545 99.955681,182.608841 
	C100.298157,183.359848 100.640633,184.110870 100.307472,184.933182 
	C100.177719,185.671829 100.047958,186.410477 99.918610,187.495285 
	C99.918610,187.495285 99.910324,187.841339 99.176003,187.943924 
	C97.713623,190.234665 96.251236,192.525406 94.815002,194.891846 
	C94.815002,194.891846 94.894981,194.895782 94.217049,195.166840 
	C94.072441,195.746033 93.927826,196.325241 93.866150,196.951843 
	C93.866150,196.951843 93.900650,196.862762 93.175194,196.576721 
	C93.060699,197.022522 92.946198,197.468307 92.908310,197.716324 
M87.460304,31.077389 
	C87.308075,31.372828 87.155846,31.668268 86.317101,31.976515 
	C85.864876,32.035721 85.412643,32.094929 84.246788,32.028435 
	C83.458862,32.345440 82.670937,32.662441 81.202675,33.025200 
	C80.526070,33.398918 79.849464,33.772636 79.475060,34.793842 
	C80.662498,34.808681 81.849945,34.823521 83.665886,34.969585 
	C84.765022,34.975723 85.864151,34.981865 87.240822,35.512947 
	C88.808960,34.699757 90.377098,33.886566 92.380356,33.698734 
	C108.764999,33.031208 121.080376,23.946636 132.881561,13.964102 
	C134.348190,14.630628 135.675995,15.234070 137.757507,16.027754 
	C144.755188,17.336742 151.757446,18.621759 158.749390,19.960709 
	C167.749359,21.684191 177.282318,14.472183 185.977036,21.602974 
	C186.740845,22.229410 187.765854,22.749943 188.729645,22.882425 
	C192.493317,23.399784 195.632767,27.840414 200.694305,24.892183 
	C201.437164,24.940512 202.180023,24.988838 203.312988,25.817827 
	C207.246811,25.861185 211.180649,25.904541 215.420807,26.084396 
	C215.420807,26.084396 215.726822,25.947197 216.180115,26.693275 
	C218.779709,26.795639 221.379303,26.898005 224.172882,27.654259 
	C228.293121,32.502552 231.869095,37.999809 236.675095,42.030422 
	C242.337296,46.779106 249.064911,50.257408 256.818390,55.243275 
	C257.191528,51.594154 258.291809,48.989838 257.499451,47.244942 
	C252.737289,36.757702 247.034424,27.011953 233.399597,25.068756 
	C232.972992,25.037926 232.546402,25.007097 231.897385,24.346731 
	C231.262451,24.269339 230.627533,24.191946 229.330856,23.998108 
	C228.886765,24.045715 228.442673,24.093323 227.259460,24.021683 
	C226.516937,24.073927 225.774414,24.126171 224.535645,23.946825 
	C224.117783,23.613949 223.699921,23.281073 222.933853,22.348551 
	C215.663010,15.483738 208.080719,9.412133 196.167587,12.045908 
	C194.427597,12.101323 192.687592,12.156737 190.220581,12.072842 
	C183.670853,12.312334 177.169266,15.681650 170.580139,11.090828 
	C166.863480,8.501322 162.233231,7.138083 157.886337,5.580115 
	C156.160904,4.961702 154.088531,5.311343 152.174103,5.220245 
	C152.151978,5.569641 152.129868,5.919037 152.107742,6.268433 
	C158.839828,8.846173 165.571899,11.423914 172.303986,14.001655 
	C172.157684,14.853114 172.011383,15.704574 171.865082,16.556034 
	C166.266891,16.747999 160.636902,17.396328 155.079102,17.008890 
	C149.020126,16.586508 143.028091,15.203860 136.372711,14.058882 
	C135.103455,13.220093 133.935135,12.017440 132.540512,11.630644 
	C130.609818,11.095165 128.503906,10.977957 126.481911,11.029543 
	C122.232864,11.137946 117.867676,10.919668 113.767738,11.822986 
	C103.178741,14.156006 96.478935,21.957769 89.336067,29.959810 
	C88.865532,30.279263 88.394997,30.598717 87.987961,30.992296 
	C87.987961,30.992296 87.952850,30.901253 87.460304,31.077389 
M145.171127,5.042847 
	C144.032257,5.286435 142.893372,5.530022 141.754501,5.773610 
	C142.140701,6.118290 142.526917,6.462970 143.579285,7.145364 
	C145.364105,7.037227 147.148926,6.929090 148.933746,6.820952 
	C148.911606,6.362147 148.889481,5.903342 148.867340,5.444537 
	C147.882889,5.350031 146.898453,5.255526 145.171127,5.042847 
M29.996109,83.386070 
	C30.642750,81.923698 31.289391,80.461334 32.089973,78.275887 
	C35.240887,69.410477 40.841175,62.968262 50.664871,59.659225 
	C56.778782,57.063839 62.892689,54.468452 69.709671,51.835045 
	C75.018166,48.536366 81.088234,46.067017 83.478081,39.539330 
	C81.276260,40.090157 79.692039,41.384014 77.989655,42.497162 
	C75.031937,44.431149 72.001205,46.253471 68.299919,48.244316 
	C63.938072,50.125854 59.576221,52.007393 55.073944,53.172363 
	C57.152931,44.771919 64.200157,40.874352 70.726768,36.175148 
	C69.190948,35.606606 68.076714,35.672527 67.100471,36.074005 
	C58.409954,39.647972 53.268749,46.440491 50.031219,55.673214 
	C49.007973,56.417854 47.984730,57.162491 46.245281,57.975609 
	C37.830956,61.869648 31.654196,67.775536 29.046995,77.842026 
	C29.016439,79.848389 28.985884,81.854759 28.229109,84.246086 
	C27.859932,87.828445 27.646544,91.437340 27.043131,94.979797 
	C26.809349,96.352264 25.984488,97.919403 24.931496,98.809265 
	C17.842802,104.799751 11.961791,111.658440 9.236206,120.685875 
	C8.694122,122.481323 9.461310,124.672066 9.624755,126.680527 
	C10.136083,126.710938 10.647411,126.741348 11.158740,126.771759 
	C13.311316,117.267029 17.897215,109.362053 25.778830,103.209053 
	C26.131996,112.148445 19.371840,128.054916 12.275621,135.891663 
	C11.504565,136.743195 11.516966,138.304123 11.165966,139.536011 
	C12.578465,139.082962 14.820674,139.037415 15.274450,138.113495 
	C19.567060,129.373444 27.150120,122.348389 28.174875,111.854927 
	C28.976135,103.650070 30.274704,95.302711 38.702103,89.849121 
	C42.006706,83.519073 45.467655,77.262794 48.512314,70.810089 
	C49.332424,69.071983 48.888100,66.737259 49.024185,64.676407 
	C48.682137,64.629715 48.340084,64.583023 47.998035,64.536331 
	C44.061371,72.364746 40.124706,80.193153 35.928757,88.656898 
	C33.970570,89.746872 32.012386,90.836853 30.830933,91.691063 
	C30.581341,89.163513 30.331751,86.635956 29.996109,83.386070 
M231.115295,194.444611 
	C231.301865,194.761581 231.579025,194.919418 231.747833,195.546524 
	C232.856567,200.666885 237.866684,202.955902 244.799316,200.976181 
	C250.096756,199.157562 255.939163,189.553909 255.917053,182.294327 
	C255.917053,181.372406 255.917053,180.450500 255.917053,179.528580 
	C255.726120,179.509781 255.535187,179.490997 255.344254,179.472214 
	C255.228836,180.334427 255.113419,181.196655 254.399139,182.441742 
	C252.366776,186.099960 250.101471,189.651978 248.370941,193.447800 
	C246.804199,196.884354 243.299149,199.035263 240.016327,197.414505 
	C240.016327,197.414505 239.876846,196.958542 239.792694,196.416687 
	C239.483185,195.971451 239.173691,195.526215 238.975189,194.246704 
	C238.618668,190.827606 238.262161,187.408524 237.905487,183.088943 
	C237.914536,177.921402 237.924637,172.753845 237.932373,167.586304 
	C237.941605,161.415314 238.218964,155.229538 237.882187,149.077423 
	C237.534073,142.718094 236.588516,136.391479 235.170792,129.903915 
	C233.124634,130.842041 231.078461,131.780151 228.267090,133.207520 
	C228.175125,140.629547 228.165665,148.054413 227.910004,155.470810 
	C227.867371,156.707275 226.753906,157.906830 225.514465,158.861542 
	C224.761322,158.687912 223.984436,158.315567 223.262344,158.401840 
	C222.654709,158.474396 222.110809,159.080460 221.708740,159.340424 
	C225.849716,163.690170 229.273987,167.560745 228.072205,174.181778 
	C227.339737,178.217270 228.610428,182.616364 228.348083,187.116241 
	C226.189148,191.042038 224.030228,194.967819 221.104065,198.923965 
	C219.781326,197.802505 217.776215,196.937103 217.244095,195.518967 
	C213.088959,184.445602 214.552139,173.527145 218.692322,162.758575 
	C219.062973,161.794525 219.125931,160.712173 219.597961,158.356140 
	C217.084076,159.694641 215.410568,160.242416 214.179367,161.303452 
	C209.907059,164.985168 207.832108,169.687729 207.799042,175.411331 
	C207.765121,181.283325 207.249084,187.152374 207.208771,193.024521 
	C207.177856,197.525909 215.134293,202.149551 222.707642,201.699921 
	C224.478226,200.168060 226.275696,198.665817 228.009277,197.093170 
	C229.048447,196.150497 229.987839,195.097824 231.001740,194.013733 
	C231.001740,194.013733 230.920654,193.984726 231.115295,194.444611 
M194.178207,157.913406 
	C192.443069,158.918274 190.707916,159.923157 188.108002,161.015762 
	C187.745514,162.473923 187.044006,163.939560 187.075943,165.389038 
	C187.272720,174.322372 187.634933,183.252090 187.662079,192.733719 
	C188.081787,199.541946 195.914322,203.768585 201.520370,201.006149 
	C200.059692,198.502594 198.228027,196.112061 197.238235,193.412811 
	C196.536469,191.499084 196.971985,189.168320 196.910995,186.074661 
	C196.939240,178.162033 197.072830,170.247101 196.900009,162.338867 
	C196.868378,160.891464 195.589966,159.471313 194.178207,157.913406 
M257.987030,267.459717 
	C259.577179,266.611877 261.167328,265.764069 262.757507,264.916229 
	C255.804352,263.111664 238.734146,272.874329 238.292892,278.279144 
	C244.827774,274.718750 251.095169,271.304077 257.987030,267.459717 
M94.122734,129.597641 
	C97.621239,130.578064 100.484528,129.606918 101.432541,126.049591 
	C101.798340,124.676971 100.490211,121.509094 99.689255,121.418526 
	C96.880226,121.100883 93.959984,121.766823 90.342262,122.134491 
	C91.844254,125.364288 92.701569,127.207794 94.122734,129.597641 
M198.012833,145.640457 
	C196.399429,144.718201 194.738968,142.994461 193.185074,143.085693 
	C191.421524,143.189255 189.277237,144.572708 188.204514,146.055298 
	C187.439484,147.112656 187.568039,150.209274 188.360413,150.708176 
	C189.964157,151.717911 192.715958,152.436081 194.206146,151.693237 
	C195.935150,150.831345 196.817917,148.271851 198.012833,145.640457 
M88.467484,123.761627 
	C85.381859,119.224525 81.947495,120.666733 78.329544,122.988960 
	C78.586060,124.121323 78.577133,125.186577 79.053772,125.947807 
	C79.946724,127.373886 80.938202,129.429520 82.229088,129.722275 
	C83.540855,130.019760 85.435402,128.729233 86.748688,127.712852 
	C87.716942,126.963486 88.161011,125.536842 88.467484,123.761627 
z"/>
<path fill="#618A9A" opacity="1.000000" stroke="none" 
	d="
M231.080170,287.036652 
	C227.782898,291.153473 224.728333,295.496887 221.139282,299.341339 
	C212.951736,308.111603 202.791992,310.708923 191.168808,308.135956 
	C190.082458,307.895477 188.718155,307.785583 187.771301,308.229828 
	C183.011292,310.462921 178.347137,312.900299 173.824661,315.632996 
	C170.307098,316.000000 166.614182,316.000000 162.460632,316.000000 
	C161.248795,315.328674 160.593567,314.472351 159.727264,314.022797 
	C157.639908,312.939575 155.453781,312.046631 153.352875,310.174683 
	C163.996567,312.856720 174.206772,313.510223 183.771622,306.677826 
	C179.523407,305.708527 175.663406,304.827789 171.467056,303.597900 
	C172.075256,302.548401 173.019806,301.848053 173.964371,301.147705 
	C175.788544,301.763550 177.609177,302.390106 179.437576,302.993164 
	C184.292557,304.594513 188.216858,304.234894 192.910080,300.873535 
	C200.372040,295.529175 208.824646,291.436798 217.207153,287.571564 
	C220.708725,285.957001 225.161743,285.618591 229.073868,285.955841 
	C231.720642,286.184021 231.315414,284.783905 232.233490,283.492432 
	C232.789520,283.679840 233.016861,283.992645 233.405167,284.509888 
	C234.062469,284.871033 234.558807,285.027740 235.050323,285.368347 
	C235.045502,285.552277 235.025391,285.919708 235.015381,286.156342 
	C235.005356,286.392975 235.005295,286.866638 235.005295,286.866638 
	C234.840897,286.904877 234.676498,286.943085 233.893982,287.008698 
	C232.543961,287.036285 231.812057,287.036469 231.080170,287.036652 
M224.772568,289.002502 
	C212.610138,291.332916 202.005951,296.589417 193.236725,305.505157 
	C197.377991,305.914856 201.364929,306.091064 205.192184,305.392395 
	C214.747955,303.648010 219.534393,295.656708 224.772568,289.002502 
z"/>
<path fill="#688E9E" opacity="1.000000" stroke="none" 
	d="
M306.929413,176.038132 
	C301.933350,171.024765 298.653717,156.309464 301.685638,150.874100 
	C303.845581,158.630142 305.910095,166.043503 308.082214,173.843307 
	C313.172546,165.423904 314.899506,152.392197 303.832550,137.848099 
	C303.183380,140.856049 302.648926,143.332382 302.114502,145.808701 
	C301.435791,145.771423 300.757080,145.734146 300.078369,145.696854 
	C300.078369,142.721146 299.024475,139.126846 300.323547,136.913651 
	C302.308777,133.531479 300.272980,131.854279 299.050049,129.663284 
	C295.184570,122.738144 290.485321,116.128479 291.113312,107.602364 
	C291.158630,106.986710 291.510345,106.393608 291.822632,105.402863 
	C291.925659,105.015709 291.909790,105.068352 291.909790,105.068344 
	C292.929474,107.264908 294.104401,109.404366 294.937714,111.669464 
	C296.900787,117.005524 298.701019,122.401482 300.800476,128.444839 
	C301.923187,126.954605 302.384003,126.342972 303.519104,125.703209 
	C304.505035,125.762360 304.816620,125.849640 305.128174,125.936920 
	C304.421692,131.264465 305.635254,135.764908 309.276733,140.077744 
	C311.987946,143.288773 313.360413,147.630157 315.664551,151.234055 
	C316.000000,156.688034 316.000000,162.376083 316.000000,168.532074 
	C315.331055,169.697922 314.556824,170.322937 314.013306,171.107727 
	C312.517426,173.267654 311.118225,175.494583 309.315796,177.482712 
	C308.276978,176.859650 307.603210,176.448883 306.929413,176.038132 
z"/>
<path fill="#1A536B" opacity="1.000000" stroke="none" 
	d="
M115.075943,203.850555 
	C113.971336,203.905350 112.866737,203.960129 111.344002,203.679825 
	C110.315018,203.183685 109.704170,203.022629 109.093323,202.861572 
	C107.374840,201.192673 105.656349,199.523773 103.845840,197.243805 
	C103.480568,196.418732 103.207306,196.204727 102.934044,195.990723 
	C102.934044,195.990723 102.998795,196.009232 103.064178,195.619705 
	C102.972420,192.368164 103.651466,189.141846 99.910324,187.841339 
	C99.910324,187.841339 99.918610,187.495285 100.181259,187.117340 
	C100.623642,186.113571 100.803375,185.487717 100.983109,184.861877 
	C100.640633,184.110870 100.298157,183.359848 100.442032,182.147308 
	C100.987839,165.804977 101.047287,149.924179 101.106743,134.043396 
	C101.983276,133.543854 102.859810,133.044296 104.327850,132.356628 
	C106.305611,132.086639 107.691856,132.004776 109.078102,131.922913 
	C109.078102,131.922928 109.024704,131.978104 108.817574,132.376450 
	C108.597153,148.239395 108.543922,163.704224 108.630554,179.168259 
	C108.639496,180.765411 109.481689,182.357880 109.937256,183.952530 
	C111.109604,189.569809 112.281952,195.187073 113.890213,201.249405 
	C114.576065,202.413162 114.826004,203.131851 115.075943,203.850555 
z"/>
<path fill="#1A546C" opacity="1.000000" stroke="none" 
	d="
M229.032303,132.718262 
	C231.078461,131.780151 233.124634,130.842041 235.500366,130.439835 
	C235.882568,147.038879 235.881210,163.102631 236.070984,179.164139 
	C236.090073,180.779572 237.266388,182.381317 237.905655,183.989426 
	C238.262161,187.408524 238.618668,190.827606 238.724960,194.836243 
	C238.942093,195.936691 239.409470,196.447617 239.876846,196.958542 
	C239.876846,196.958542 240.016327,197.414505 240.062531,198.008514 
	C241.435379,199.463303 242.762024,200.324051 244.088684,201.184814 
	C237.866684,202.955902 232.856567,200.666885 231.714569,195.038391 
	C231.472397,194.286194 231.218842,194.104355 230.920654,193.984726 
	C230.920654,193.984726 231.001740,194.013733 231.028503,193.659378 
	C230.363953,191.154053 229.672668,189.003098 228.981354,186.852127 
	C228.610428,182.616364 227.339737,178.217270 228.072205,174.181778 
	C229.273987,167.560745 225.849716,163.690170 221.708740,159.340424 
	C222.110809,159.080460 222.654709,158.474396 223.262344,158.401840 
	C223.984436,158.315567 224.761322,158.687912 225.980621,159.302017 
	C228.497742,160.989822 229.326080,160.481781 229.283936,158.022171 
	C229.139450,149.588577 229.107300,141.153046 229.032303,132.718262 
z"/>
<path fill="#124E67" opacity="1.000000" stroke="none" 
	d="
M76.876389,180.967896 
	C77.840195,185.701965 78.558105,190.507401 79.900215,195.131683 
	C80.374779,196.766785 82.372704,197.959747 84.088516,199.905396 
	C86.034050,201.240784 87.566200,202.025330 89.098343,202.809875 
	C81.166321,205.745071 71.303787,200.046478 70.020912,191.793686 
	C69.742981,190.005676 69.430931,188.222946 69.383713,185.886200 
	C69.228806,181.247787 68.824776,177.160995 68.439575,172.601395 
	C68.300018,159.720581 68.141624,147.312561 67.983231,134.904541 
	C67.983231,134.904541 67.983452,134.980362 68.288605,135.120667 
	C69.151169,134.510696 69.708572,133.760437 70.265976,133.010178 
	C71.739212,132.503082 73.212463,131.995987 74.844833,132.187683 
	C75.018494,147.257309 74.973862,161.628830 75.127846,175.998199 
	C75.145660,177.660812 76.266785,179.311615 76.876389,180.967896 
z"/>
<path fill="#1B556C" opacity="1.000000" stroke="none" 
	d="
M165.901459,158.190430 
	C172.445404,158.199524 175.584656,161.194534 176.004257,167.565308 
	C176.575317,176.235687 177.014954,184.930008 178.084457,193.542847 
	C178.402451,196.103683 180.647324,198.425247 182.219894,201.232376 
	C178.889984,204.737640 170.785446,201.032669 169.535263,192.790512 
	C168.539871,186.227997 169.315277,179.416199 168.826324,172.750153 
	C168.543228,168.890656 167.313812,165.100571 166.219757,160.717422 
	C165.919983,159.500534 165.910721,158.845490 165.901459,158.190430 
z"/>
<path fill="#628A9A" opacity="1.000000" stroke="none" 
	d="
M38.036579,90.083023 
	C30.274704,95.302711 28.976135,103.650070 28.174875,111.854927 
	C27.150120,122.348389 19.567060,129.373444 15.274450,138.113495 
	C14.820674,139.037415 12.578465,139.082962 11.165968,139.536011 
	C11.516966,138.304123 11.504565,136.743195 12.275621,135.891663 
	C19.371840,128.054916 26.131996,112.148445 25.778830,103.209053 
	C17.897215,109.362053 13.311316,117.267029 11.158740,126.771759 
	C10.647411,126.741348 10.136083,126.710938 9.624755,126.680527 
	C9.461310,124.672066 8.694122,122.481323 9.236206,120.685875 
	C11.961791,111.658440 17.842802,104.799751 24.931496,98.809265 
	C25.984488,97.919403 26.809349,96.352264 27.043131,94.979797 
	C27.646544,91.437340 27.859932,87.828445 28.614861,84.389297 
	C29.281723,85.349564 29.562834,86.166611 29.912960,87.390533 
	C30.006050,89.173889 30.030125,90.550354 30.054199,91.926826 
	C32.012386,90.836853 33.970570,89.746872 36.300995,88.485687 
	C37.127686,88.903992 37.582130,89.493507 38.036579,90.083023 
z"/>
<path fill="#0E4B64" opacity="1.000000" stroke="none" 
	d="
M122.936401,191.921066 
	C122.960846,191.719986 122.985275,191.518921 123.408234,190.761230 
	C124.013817,188.255692 124.356155,186.310120 124.404099,184.357330 
	C124.594208,176.613846 124.692253,168.868118 124.987320,160.881958 
	C125.151413,160.446609 125.152596,160.252548 125.153770,160.058472 
	C131.806885,156.780426 132.007004,156.953033 131.938599,166.772247 
	C130.973831,169.889206 130.552704,171.978134 134.093689,172.130234 
	C133.398788,180.400803 132.661438,188.668091 132.025818,196.943222 
	C131.676483,201.491409 130.395798,202.425217 125.383911,200.664856 
	C124.366745,197.351837 123.651573,194.636444 122.936401,191.921066 
z"/>
<path fill="#1B546C" opacity="1.000000" stroke="none" 
	d="
M145.675781,163.972870 
	C145.263123,162.712997 144.850464,161.453140 144.153442,159.847137 
	C143.869064,159.501022 143.869888,159.219086 143.869888,159.219086 
	C149.142578,157.517166 152.236389,159.894699 154.007950,167.767212 
	C154.682358,170.056519 155.399384,171.621323 156.116425,173.186111 
	C155.791885,180.367325 155.351898,187.545685 155.175690,194.730545 
	C155.004044,201.730164 154.807983,202.048828 147.523651,201.507324 
	C147.124252,190.472031 147.154373,179.939865 146.994965,169.410568 
	C146.967422,167.591766 146.135925,165.785126 145.675781,163.972870 
z"/>
<path fill="#165169" opacity="1.000000" stroke="none" 
	d="
M222.049454,201.876175 
	C215.134293,202.149551 207.177856,197.525909 207.208771,193.024521 
	C207.249084,187.152374 207.765121,181.283325 207.799042,175.411331 
	C207.832108,169.687729 209.907059,164.985168 214.179367,161.303452 
	C215.410568,160.242416 217.084076,159.694641 219.597961,158.356140 
	C219.125931,160.712173 219.062973,161.794525 218.692322,162.758575 
	C214.552139,173.527145 213.088959,184.445602 217.244095,195.518967 
	C217.776215,196.937103 219.781326,197.802505 221.508911,199.281479 
	C221.958984,200.384720 222.004227,201.130447 222.049454,201.876175 
z"/>
<path fill="#134F67" opacity="1.000000" stroke="none" 
	d="
M196.899872,187.023697 
	C196.971985,189.168320 196.536469,191.499084 197.238235,193.412811 
	C198.228027,196.112061 200.059692,198.502594 201.520370,201.006149 
	C195.914322,203.768585 188.081787,199.541946 188.156555,192.187256 
	C188.758301,181.403214 188.865540,171.165619 188.972778,160.928040 
	C190.707916,159.923157 192.443069,158.918274 194.523392,158.441299 
	C194.926849,166.863388 194.892990,174.760300 195.125671,182.649353 
	C195.169159,184.123627 196.281036,185.566391 196.899872,187.023697 
z"/>
<path fill="#608999" opacity="1.000000" stroke="none" 
	d="
M137.003799,15.837511 
	C135.675995,15.234070 134.348190,14.630628 132.881561,13.964102 
	C121.080376,23.946636 108.764999,33.031208 92.183395,33.092422 
	C91.356323,32.003689 90.726212,31.521271 90.109695,30.744942 
	C90.077782,30.260227 90.032280,30.069427 89.986778,29.878626 
	C96.478935,21.957769 103.178741,14.156006 113.767738,11.822986 
	C117.867676,10.919668 122.232864,11.137946 126.481911,11.029543 
	C128.503906,10.977957 130.609818,11.095165 132.540512,11.630644 
	C133.935135,12.017440 135.103455,13.220093 136.689667,14.415632 
	C137.005692,15.127426 137.004745,15.482469 137.003799,15.837511 
M123.325577,17.905499 
	C124.664505,17.047029 126.003433,16.188560 127.342361,15.330091 
	C112.967987,11.830854 103.870171,18.515814 95.832253,28.038948 
	C101.599640,30.387426 111.660027,26.560303 123.325577,17.905499 
z"/>
<path fill="#648C9C" opacity="1.000000" stroke="none" 
	d="
M137.380646,15.932632 
	C137.004745,15.482469 137.005692,15.127426 137.006744,14.506104 
	C143.028091,15.203860 149.020126,16.586508 155.079102,17.008890 
	C160.636902,17.396328 166.266891,16.747999 171.865082,16.556034 
	C172.011383,15.704574 172.157684,14.853114 172.303986,14.001655 
	C165.571899,11.423914 158.839828,8.846173 152.107742,6.268433 
	C152.129868,5.919037 152.151978,5.569641 152.174103,5.220245 
	C154.088531,5.311343 156.160904,4.961702 157.886337,5.580115 
	C162.233231,7.138083 166.863480,8.501322 170.580139,11.090828 
	C177.169266,15.681650 183.670853,12.312334 190.598206,12.368625 
	C190.975830,12.664408 191.054688,13.110635 190.886917,13.442548 
	C188.164810,14.750992 185.610458,15.727524 183.056122,16.704056 
	C183.015839,17.176275 182.975571,17.648495 182.935303,18.120714 
	C189.668716,20.069515 196.402130,22.018318 202.804733,24.002655 
	C201.639832,24.261049 200.805740,24.483906 199.971649,24.706764 
	C195.632767,27.840414 192.493317,23.399784 188.729645,22.882425 
	C187.765854,22.749943 186.740845,22.229410 185.977036,21.602974 
	C177.282318,14.472183 167.749359,21.684191 158.749390,19.960709 
	C151.757446,18.621759 144.755188,17.336742 137.380646,15.932632 
z"/>
<path fill="#638B9B" opacity="1.000000" stroke="none" 
	d="
M59.858406,265.065826 
	C68.166519,265.251099 74.582695,269.754120 80.283646,274.958801 
	C86.174583,280.336945 91.291229,286.563202 96.769760,293.075317 
	C96.838303,294.369415 96.883698,295.006653 96.929077,295.643921 
	C96.929077,295.643921 96.565834,295.612366 96.392792,295.247009 
	C94.156120,294.935913 92.092484,294.990143 90.028854,295.044373 
	C84.651604,296.202087 80.242737,294.029510 76.111290,290.963593 
	C67.557968,284.616211 62.027386,276.330658 59.974159,265.404053 
	C59.904064,265.022186 59.858406,265.065826 59.858406,265.065826 
M68.105736,277.371826 
	C74.699394,289.223938 84.052544,295.042053 91.420395,291.874664 
	C85.857964,281.399628 72.340843,270.071045 63.851517,269.295898 
	C65.343544,271.976105 66.642754,274.309937 68.105736,277.371826 
z"/>
<path fill="#668D9D" opacity="1.000000" stroke="none" 
	d="
M234.025391,25.211060 
	C247.034424,27.011953 252.737289,36.757702 257.499451,47.244942 
	C258.291809,48.989838 257.191528,51.594154 256.818390,55.243275 
	C249.064911,50.257408 242.337296,46.779106 236.675095,42.030422 
	C231.869095,37.999809 228.293121,32.502552 224.041412,27.096338 
	C223.909958,26.538418 223.873978,26.072552 224.214279,26.110928 
	C224.778427,26.194284 225.002258,26.239267 225.408630,26.452389 
	C226.089142,26.737581 226.587097,26.854633 227.377945,27.160566 
	C231.988663,32.271595 235.870621,37.694717 240.765488,41.953690 
	C244.523590,45.223587 248.590744,49.153843 255.709030,48.871906 
	C252.272446,43.728355 250.053802,38.757603 246.383194,35.351582 
	C242.241470,31.508392 236.793594,29.072786 232.205292,25.998413 
	C233.006317,25.718231 233.515854,25.464643 234.025391,25.211060 
z"/>
<path fill="#6990A0" opacity="1.000000" stroke="none" 
	d="
M309.023315,179.935150 
	C312.432098,184.767868 312.323517,190.240280 311.598297,195.690918 
	C310.261597,205.737198 303.318298,212.273712 296.276031,218.665924 
	C295.920746,217.577530 295.883026,216.722839 295.865417,215.508469 
	C296.199280,214.596542 296.383636,213.879532 296.845947,213.516403 
	C305.958954,206.358154 309.304535,196.893631 307.969727,185.609375 
	C307.900818,185.026794 306.699829,184.578140 306.063049,183.760162 
	C306.736023,182.672409 307.371826,181.891602 308.216919,180.950546 
	C308.625214,180.505234 308.824280,180.220200 309.023315,179.935150 
z"/>
<path fill="#648C9C" opacity="1.000000" stroke="none" 
	d="
M259.800049,56.931610 
	C259.442139,53.485863 261.961182,53.324352 263.923462,54.078835 
	C277.528717,59.309971 289.456940,66.310791 291.170288,82.999763 
	C290.398682,83.908348 290.175629,84.453339 289.687378,84.851532 
	C288.925293,84.084023 288.428406,83.463295 287.968597,82.446793 
	C286.233154,70.583199 274.998016,58.824757 264.165558,57.219284 
	C263.940338,57.185905 263.540924,58.327950 262.926880,58.760300 
	C261.687347,58.043179 260.743713,57.487392 259.800049,56.931610 
z"/>
<path fill="#5C8697" opacity="1.000000" stroke="none" 
	d="
M272.003418,261.891113 
	C270.178619,264.916077 268.158264,267.842072 266.567261,270.985382 
	C262.525513,278.970764 254.827423,284.258392 246.791031,283.571411 
	C250.062027,281.512329 253.073486,280.230835 255.258652,278.101440 
	C258.804016,274.646515 261.868103,270.684204 264.975983,266.808289 
	C265.450287,266.216766 264.946472,264.916992 265.116486,263.985229 
	C265.309265,262.928589 265.713837,261.041748 266.090942,261.025665 
	C268.998779,260.901123 269.295929,258.682922 270.184204,256.523102 
	C270.958191,256.874451 271.532928,257.425446 272.107697,257.976440 
	C273.203857,257.406677 274.300018,256.836914 275.805969,256.448395 
	C275.815063,257.697815 275.414307,258.766022 275.013550,259.834229 
	C275.013580,259.834229 274.600342,259.978271 274.062805,260.039032 
	C273.017975,260.696899 272.510712,261.294006 272.003418,261.891113 
z"/>
<path fill="#5E8799" opacity="1.000000" stroke="none" 
	d="
M29.212952,235.011993 
	C29.193985,234.585602 29.175022,234.159210 29.496590,233.371094 
	C29.899282,232.271576 29.961447,231.533768 30.023611,230.795959 
	C41.630730,238.813828 53.861675,246.213425 59.904015,259.899139 
	C60.466366,261.172852 60.071945,262.869019 59.990086,264.717407 
	C59.858406,265.065826 59.904064,265.022186 59.928047,265.004395 
	C59.952034,264.986603 59.468834,264.923309 59.181690,264.552612 
	C58.248722,263.088654 57.602894,261.995422 56.957066,260.902161 
	C52.086281,250.708572 44.324791,243.205063 34.785931,237.466415 
	C33.823204,236.887238 32.070808,237.620667 30.328674,237.503204 
	C29.719296,236.511642 29.466124,235.761810 29.212952,235.011993 
z"/>
<path fill="#668D9D" opacity="1.000000" stroke="none" 
	d="
M308.007629,181.110809 
	C307.371826,181.891602 306.736023,182.672409 306.040161,184.122833 
	C302.464386,191.572311 298.610535,198.205170 295.572845,205.192825 
	C294.007629,208.793335 293.894806,213.025253 292.870575,216.890427 
	C292.162628,216.523773 291.709808,216.238556 291.257019,215.953339 
	C288.049072,211.228302 290.833099,206.271057 292.469147,202.612122 
	C296.146332,194.388199 301.607574,186.961975 306.677460,179.388596 
	C307.344116,180.081024 307.675873,180.595917 308.007629,181.110809 
z"/>
<path fill="#638B9B" opacity="1.000000" stroke="none" 
	d="
M27.975899,230.991135 
	C21.490900,230.414215 19.588331,224.726593 16.898609,220.399399 
	C11.657748,211.967972 12.557633,202.761566 15.327106,193.302734 
	C15.649938,193.000397 16.108847,193.056061 16.108847,193.056061 
	C16.338005,196.147446 16.962784,199.269852 16.723303,202.324493 
	C15.956919,212.099991 18.353523,220.522247 26.551043,227.174347 
	C27.161793,227.921158 27.398413,228.425720 27.732235,228.943085 
	C27.829439,228.955872 28.020861,228.998337 27.973667,229.328674 
	C27.942949,230.103043 27.959423,230.547089 27.975899,230.991135 
z"/>
<path fill="#638B9B" opacity="1.000000" stroke="none" 
	d="
M259.542603,57.123001 
	C260.743713,57.487392 261.687347,58.043179 263.244812,58.916904 
	C265.629578,62.266388 267.044922,65.589546 269.243195,68.270782 
	C274.343842,74.492088 279.921692,80.275375 287.931488,82.842575 
	C288.428406,83.463295 288.925293,84.084023 289.660980,85.228149 
	C289.927460,86.503792 289.955139,87.256027 289.982788,88.008270 
	C284.746002,84.616867 279.213531,81.598938 274.343750,77.743896 
	C267.551575,72.367050 262.289001,65.609116 259.542603,57.123001 
z"/>
<path fill="#688E9E" opacity="1.000000" stroke="none" 
	d="
M129.082031,307.020721 
	C128.066452,307.665955 127.108711,308.745514 126.026413,308.889648 
	C114.387047,310.439392 105.000168,306.021332 97.424042,297.286316 
	C99.073814,296.934265 100.463402,296.981323 101.924194,297.383972 
	C104.889458,299.806030 107.517036,302.829529 110.736877,303.726135 
	C116.269157,305.266632 122.170906,305.480286 128.076523,306.427094 
	C128.488220,306.802124 128.770401,306.941284 129.082031,307.020721 
z"/>
<path fill="#6990A0" opacity="1.000000" stroke="none" 
	d="
M141.993500,305.881195 
	C138.461609,306.493744 134.929703,307.106262 131.087219,307.163239 
	C130.497925,306.397095 130.219208,306.186462 130.040680,305.673370 
	C132.368774,304.591309 134.596710,303.811737 136.824646,303.032135 
	C136.792328,302.631714 136.760010,302.231262 136.727707,301.830841 
	C129.820267,299.849396 122.912819,297.867950 116.210800,295.634705 
	C117.613449,294.975861 118.810669,294.568848 120.007889,294.161865 
	C124.696999,295.638733 129.430817,296.990692 134.055893,298.646393 
	C136.293503,299.447418 138.326950,300.818756 140.902802,302.266907 
	C141.549530,302.836823 141.778290,303.034698 142.034546,303.531342 
	C142.017868,304.538452 142.005692,305.209808 141.993500,305.881195 
z"/>
<path fill="#668D9D" opacity="1.000000" stroke="none" 
	d="
M275.356598,259.787781 
	C275.414307,258.766022 275.815063,257.697815 276.123749,256.387634 
	C281.521545,251.612366 286.124634,246.525177 287.368378,239.118652 
	C287.594025,237.774872 288.615845,236.564789 289.884583,235.142212 
	C290.693085,234.985184 290.887115,234.978928 291.081146,234.972687 
	C290.873840,237.352112 291.047455,239.842865 290.390503,242.090897 
	C288.066315,250.044586 283.209747,256.033051 275.356598,259.787781 
z"/>
<path fill="#608999" opacity="1.000000" stroke="none" 
	d="
M56.544781,260.922791 
	C57.602894,261.995422 58.248722,263.088654 58.944603,264.496368 
	C55.999367,264.194580 52.854298,263.967407 50.038979,262.883636 
	C43.554344,260.387360 38.070770,256.268005 33.539104,251.013367 
	C32.600628,249.925171 32.428768,248.175812 31.903585,246.731171 
	C32.285988,246.475800 32.668388,246.220428 33.050785,245.965073 
	C35.637192,248.697449 38.087021,251.577316 40.841545,254.128143 
	C45.129704,258.099182 50.000301,260.998383 56.544781,260.922791 
z"/>
<path fill="#6D92A1" opacity="1.000000" stroke="none" 
	d="
M38.369339,89.966072 
	C37.582130,89.493507 37.127686,88.903992 36.430641,88.168022 
	C40.124706,80.193153 44.061371,72.364746 47.998035,64.536331 
	C48.340084,64.583023 48.682137,64.629715 49.024185,64.676407 
	C48.888100,66.737259 49.332424,69.071983 48.512314,70.810089 
	C45.467655,77.262794 42.006706,83.519073 38.369339,89.966072 
z"/>
<path fill="#668D9D" opacity="1.000000" stroke="none" 
	d="
M272.210876,257.617950 
	C271.532928,257.425446 270.958191,256.874451 270.120667,256.175201 
	C271.179291,247.161331 274.517548,239.199310 279.840973,232.126663 
	C280.393799,232.281143 280.946594,232.435608 281.499390,232.590088 
	C281.239136,233.995529 281.199615,235.488724 280.681671,236.791748 
	C277.959045,243.640793 275.115540,250.441772 272.210876,257.617950 
z"/>
<path fill="#688E9E" opacity="1.000000" stroke="none" 
	d="
M29.152699,76.985924 
	C31.654196,67.775536 37.830956,61.869648 46.806976,58.194214 
	C48.266743,58.978127 49.164814,59.543434 50.062881,60.108742 
	C40.841175,62.968262 35.240887,69.410477 31.763792,78.474312 
	C30.675974,78.110466 29.914337,77.548195 29.152699,76.985924 
z"/>
<path fill="#638B9B" opacity="1.000000" stroke="none" 
	d="
M50.108433,54.997353 
	C53.268749,46.440491 58.409954,39.647972 67.100471,36.074005 
	C68.076714,35.672527 69.190948,35.606606 70.726768,36.175148 
	C64.200157,40.874352 57.152931,44.771919 54.920158,53.665459 
	C53.213730,54.438156 51.661079,54.717754 50.108433,54.997353 
z"/>
<path fill="#7094A3" opacity="1.000000" stroke="none" 
	d="
M16.841576,186.942368 
	C13.871140,183.353409 10.450554,180.035843 8.071748,176.090195 
	C6.145424,172.895050 5.472355,168.944305 4.826767,164.938095 
	C5.616531,163.669128 5.822925,162.790771 6.370019,162.078705 
	C8.147761,166.554428 9.239052,171.024414 11.139926,175.118484 
	C12.470658,177.984589 14.907238,180.337265 17.221455,182.941559 
	C18.337091,182.982513 19.081205,183.001129 19.825317,183.019745 
	C19.564901,183.522064 19.304485,184.024399 18.729628,184.985718 
	C18.218939,185.956528 18.022692,186.468338 17.580074,186.974747 
	C17.333700,186.969345 16.841576,186.942368 16.841576,186.942368 
z"/>
<path fill="#668D9D" opacity="1.000000" stroke="none" 
	d="
M257.674805,267.674561 
	C251.095169,271.304077 244.827774,274.718750 238.292892,278.279144 
	C238.734146,272.874329 255.804352,263.111664 262.757507,264.916229 
	C261.167328,265.764069 259.577179,266.611877 257.674805,267.674561 
z"/>
<path fill="#6D92A1" opacity="1.000000" stroke="none" 
	d="
M12.008778,142.175476 
	C13.018467,143.145508 14.549501,143.937820 14.950850,145.115219 
	C17.101700,151.425003 18.970989,157.830750 20.583801,164.642517 
	C19.551950,165.713013 18.873865,166.344330 17.999386,166.632111 
	C15.865147,159.222610 13.927299,152.156616 12.014666,144.773026 
	C12.009527,144.031998 11.979175,143.608597 11.961437,142.932617 
	C11.985628,142.511856 11.997203,142.343674 12.008778,142.175476 
M18.231050,162.853073 
	C18.423813,162.811508 18.616575,162.769943 18.809338,162.728363 
	C18.739170,162.470062 18.669003,162.211746 18.598833,161.953445 
	C18.452372,162.130188 18.305908,162.306931 18.231050,162.853073 
z"/>
<path fill="#A5BDC3" opacity="1.000000" stroke="none" 
	d="
M237.905579,183.539185 
	C237.266388,182.381317 236.090073,180.779572 236.070984,179.164139 
	C235.881210,163.102631 235.882568,147.038879 235.867126,130.513153 
	C236.588516,136.391479 237.534073,142.718094 237.882187,149.077423 
	C238.218964,155.229538 237.941605,161.415314 237.932373,167.586304 
	C237.924637,172.753845 237.914536,177.921402 237.905579,183.539185 
z"/>
<path fill="#5C8697" opacity="1.000000" stroke="none" 
	d="
M244.444000,201.080505 
	C242.762024,200.324051 241.435379,199.463303 240.065918,198.246918 
	C243.299149,199.035263 246.804199,196.884354 248.370941,193.447800 
	C250.101471,189.651978 252.366776,186.099960 254.778473,182.437759 
	C255.301758,182.671967 255.493683,182.861588 255.733597,183.002640 
	C255.939163,189.553909 250.096756,199.157562 244.444000,201.080505 
z"/>
<path fill="#6D92A1" opacity="1.000000" stroke="none" 
	d="
M173.545837,301.057007 
	C173.019806,301.848053 172.075256,302.548401 171.060791,303.545837 
	C163.814468,302.062531 156.625702,302.302460 148.961578,303.140747 
	C147.278244,302.365753 146.063110,302.160889 144.847977,301.955994 
	C152.713058,299.333435 160.668289,298.114319 168.877213,300.277130 
	C170.258560,300.641083 171.708862,300.743225 173.545837,301.057007 
z"/>
<path fill="#7699A7" opacity="1.000000" stroke="none" 
	d="
M16.523949,187.131866 
	C16.841576,186.942368 17.333700,186.969345 17.640194,187.265533 
	C17.975960,187.757278 18.005234,187.952835 18.034510,188.148376 
	C21.154619,193.380478 24.332745,198.580017 27.314720,203.889709 
	C27.652845,204.491776 26.887465,205.713562 26.633785,206.647995 
	C25.774391,205.986908 24.562862,205.504730 24.119547,204.632217 
	C22.598063,201.637726 21.489965,198.429672 19.913525,195.468460 
	C19.352184,194.414017 17.903419,193.832001 16.484291,193.045197 
	C16.108847,193.056061 15.649938,193.000397 15.419020,192.990295 
	C15.527509,191.093933 15.866914,189.207642 16.523949,187.131866 
z"/>
<path fill="#688E9E" opacity="1.000000" stroke="none" 
	d="
M290.177155,92.024300 
	C290.139465,91.290092 290.101776,90.555885 290.381775,89.582420 
	C291.477325,89.176697 292.255249,89.010223 293.033173,88.843758 
	C299.921021,91.775917 306.596771,102.368149 305.193298,108.610672 
	C305.126038,108.976685 305.150726,108.926697 305.150726,108.926697 
	C303.094330,105.828720 301.138672,102.657333 298.951233,99.654839 
	C297.029633,97.017281 294.848389,94.568932 292.132446,92.016510 
	C291.283386,91.997124 291.083679,91.998238 290.707336,92.007904 
	C290.530731,92.016457 290.177155,92.024300 290.177155,92.024300 
z"/>
<path fill="#295F76" opacity="1.000000" stroke="none" 
	d="
M93.840805,129.324463 
	C92.701569,127.207794 91.844254,125.364288 90.342262,122.134491 
	C93.959984,121.766823 96.880226,121.100883 99.689255,121.418526 
	C100.490211,121.509094 101.798340,124.676971 101.432541,126.049591 
	C100.484528,129.606918 97.621239,130.578064 93.840805,129.324463 
z"/>
<path fill="#295F76" opacity="1.000000" stroke="none" 
	d="
M198.040421,146.044846 
	C196.817917,148.271851 195.935150,150.831345 194.206146,151.693237 
	C192.715958,152.436081 189.964157,151.717911 188.360413,150.708176 
	C187.568039,150.209274 187.439484,147.112656 188.204514,146.055298 
	C189.277237,144.572708 191.421524,143.189255 193.185074,143.085693 
	C194.738968,142.994461 196.399429,144.718201 198.040421,146.044846 
z"/>
<path fill="#82A3B1" opacity="1.000000" stroke="none" 
	d="
M76.886375,180.520782 
	C76.266785,179.311615 75.145660,177.660812 75.127846,175.998199 
	C74.973862,161.628830 75.018494,147.257309 75.022568,132.414307 
	C75.692413,133.302765 76.922882,134.671799 76.903206,136.022644 
	C76.746277,146.798248 76.247078,157.568863 76.086922,168.344482 
	C76.028877,172.249344 76.607979,176.163666 76.886375,180.520782 
z"/>
<path fill="#5C8697" opacity="1.000000" stroke="none" 
	d="
M197.028793,12.177412 
	C208.080719,9.412133 215.663010,15.483738 222.784363,22.761017 
	C221.771194,23.436953 220.907516,23.700422 220.060852,23.598961 
	C213.848404,16.543591 205.787155,13.908798 197.026672,12.661204 
	C197.026855,12.499938 197.028793,12.177412 197.028793,12.177412 
z"/>
<path fill="#225A72" opacity="1.000000" stroke="none" 
	d="
M88.653061,124.086800 
	C88.161011,125.536842 87.716942,126.963486 86.748688,127.712852 
	C85.435402,128.729233 83.540855,130.019760 82.229088,129.722275 
	C80.938202,129.429520 79.946724,127.373886 79.053772,125.947807 
	C78.577133,125.186577 78.586060,124.121323 78.329544,122.988960 
	C81.947495,120.666733 85.381859,119.224525 88.653061,124.086800 
z"/>
<path fill="#5C8697" opacity="1.000000" stroke="none" 
	d="
M50.069824,55.335281 
	C51.661079,54.717754 53.213730,54.438156 54.990376,54.023743 
	C59.576221,52.007393 63.938072,50.125854 68.645164,48.558487 
	C68.995804,49.872795 69.001198,50.872929 69.006592,51.873066 
	C62.892689,54.468452 56.778782,57.063839 50.363876,59.883984 
	C49.164814,59.543434 48.266743,58.978127 47.165077,58.159973 
	C47.984730,57.162491 49.007973,56.417854 50.069824,55.335281 
z"/>
<path fill="#3B7086" opacity="1.000000" stroke="none" 
	d="
M119.639259,293.942932 
	C118.810669,294.568848 117.613449,294.975861 115.750641,295.686096 
	C110.674370,296.335724 106.263687,296.682068 101.852997,297.028412 
	C100.463402,296.981323 99.073814,296.934265 97.407761,296.945221 
	C97.092407,296.777985 97.053505,296.552673 96.971840,295.985626 
	C96.883698,295.006653 96.838303,294.369415 96.854431,293.415039 
	C104.367500,293.306610 111.819069,293.515320 119.639259,293.942932 
z"/>
<path fill="#4D7B8D" opacity="1.000000" stroke="none" 
	d="
M143.544952,159.158478 
	C143.869888,159.219086 143.869064,159.501022 143.869446,159.641968 
	C140.802414,163.759857 137.735016,167.736801 134.380646,171.921997 
	C130.552704,171.978134 130.973831,169.889206 131.937012,167.200256 
	C134.085663,164.680542 135.978561,162.295609 138.312851,160.477310 
	C139.553787,159.510681 141.559525,159.525864 143.544952,159.158478 
z"/>
<path fill="#4A788C" opacity="1.000000" stroke="none" 
	d="
M156.417969,172.975616 
	C155.399384,171.621323 154.682358,170.056519 153.990845,168.144226 
	C155.039658,166.641342 156.314041,165.623520 157.037155,164.303665 
	C158.881744,160.936874 161.171417,158.382706 165.617523,158.252472 
	C165.910721,158.845490 165.919983,159.500534 165.915558,160.482941 
	C160.597260,163.071793 158.160706,167.536194 156.417969,172.975616 
z"/>
<path fill="#8FA9B4" opacity="1.000000" stroke="none" 
	d="
M196.905426,186.549179 
	C196.281036,185.566391 195.169159,184.123627 195.125671,182.649353 
	C194.892990,174.760300 194.926849,166.863388 194.877823,158.503876 
	C195.589966,159.471313 196.868378,160.891464 196.900009,162.338867 
	C197.072830,170.247101 196.939240,178.162033 196.905426,186.549179 
z"/>
<path fill="#688E9E" opacity="1.000000" stroke="none" 
	d="
M69.358131,51.854057 
	C69.001198,50.872929 68.995804,49.872795 68.995750,48.497635 
	C72.001205,46.253471 75.031937,44.431149 77.989655,42.497162 
	C79.692039,41.384014 81.276260,40.090157 83.478081,39.539330 
	C81.088234,46.067017 75.018166,48.536366 69.358131,51.854057 
z"/>
<path fill="#809EAB" opacity="1.000000" stroke="none" 
	d="
M188.540390,160.971893 
	C188.865540,171.165619 188.758301,181.403214 188.296585,191.911896 
	C187.634933,183.252090 187.272720,174.322372 187.075943,165.389038 
	C187.044006,163.939560 187.745514,162.473923 188.540390,160.971893 
z"/>
<path fill="#5C8697" opacity="1.000000" stroke="none" 
	d="
M122.604073,192.056366 
	C123.651573,194.636444 124.366745,197.351837 125.047676,200.487488 
	C124.077591,200.139572 123.141747,199.371353 122.936409,199.202805 
	C120.436226,200.745865 118.084061,202.197571 115.403915,203.749924 
	C114.826004,203.131851 114.576065,202.413162 114.222458,201.426697 
	C116.836433,198.169830 119.554092,195.180740 122.604073,192.056366 
z"/>
<path fill="#5C8697" opacity="1.000000" stroke="none" 
	d="
M18.195778,166.975632 
	C18.873865,166.344330 19.551950,165.713013 20.508833,165.029938 
	C20.505327,170.702698 20.223022,176.427185 19.883018,182.585724 
	C19.081205,183.001129 18.337091,182.982513 17.287504,182.505478 
	C17.386612,177.023254 17.791195,171.999451 18.195778,166.975632 
z"/>
<path fill="#558092" opacity="1.000000" stroke="none" 
	d="
M222.378540,201.788055 
	C222.004227,201.130447 221.958984,200.384720 221.892532,199.266296 
	C224.030228,194.967819 226.189148,191.042038 228.664734,186.984192 
	C229.672668,189.003098 230.363953,191.154053 231.013672,193.699799 
	C229.987839,195.097824 229.048447,196.150497 228.009277,197.093170 
	C226.275696,198.665817 224.478226,200.168060 222.378540,201.788055 
z"/>
<path fill="#FEFFFF" opacity="1.000000" stroke="none" 
	d="
M109.957092,183.485992 
	C109.481689,182.357880 108.639496,180.765411 108.630554,179.168259 
	C108.543922,163.704224 108.597153,148.239395 108.814697,132.338165 
	C109.345726,133.225266 109.951706,134.547958 109.956657,135.872879 
	C110.015343,151.588211 109.984367,167.303879 109.957092,183.485992 
z"/>
<path fill="#EFEFEF" opacity="1.000000" stroke="none" 
	d="
M100.667343,134.150146 
	C101.047287,149.924179 100.987839,165.804977 100.507233,181.836823 
	C100.133362,166.077545 100.180649,150.167236 100.667343,134.150146 
z"/>
<path fill="#5C8697" opacity="1.000000" stroke="none" 
	d="
M99.543167,187.892639 
	C103.651466,189.141846 102.972420,192.368164 103.050217,195.650360 
	C102.185081,195.151154 101.399277,194.231781 100.605682,193.303299 
	C99.922813,194.168793 99.287781,194.973663 98.045624,195.753204 
	C96.555283,195.423950 95.672073,195.120056 94.788864,194.816162 
	C96.251236,192.525406 97.713623,190.234665 99.543167,187.892639 
z"/>
<path fill="#E9F1FB" opacity="1.000000" stroke="none" 
	d="
M67.588272,135.106384 
	C68.141624,147.312561 68.300018,159.720581 68.124596,172.527863 
	C67.575356,172.923950 67.359917,172.920776 67.144478,172.917603 
	C67.160751,160.381149 67.177032,147.844681 67.588272,135.106384 
z"/>
<path fill="#92ACB8" opacity="1.000000" stroke="none" 
	d="
M145.843781,164.417603 
	C146.135925,165.785126 146.967422,167.591766 146.994965,169.410568 
	C147.154373,179.939865 147.124252,190.472031 147.101044,201.462524 
	C146.695786,200.478363 146.056839,199.037064 146.046112,197.591110 
	C145.965210,186.682053 146.007782,175.772049 145.843781,164.417603 
z"/>
<path fill="#457487" opacity="1.000000" stroke="none" 
	d="
M94.801933,194.854004 
	C95.672073,195.120056 96.555283,195.423950 97.753220,195.884171 
	C95.310829,198.331512 92.553719,200.622513 89.447472,202.861694 
	C87.566200,202.025330 86.034050,201.240784 84.260963,200.199951 
	C86.454315,199.396286 88.888603,198.848907 91.766586,198.253113 
	C92.377579,198.015030 92.544868,197.825333 92.712158,197.635635 
	C92.712158,197.635635 92.908310,197.716324 93.117935,197.720856 
	C93.518585,197.437851 93.709618,197.150314 93.900650,196.862762 
	C93.900650,196.862762 93.866150,196.951843 94.123245,196.801605 
	C94.551888,196.066177 94.723434,195.480972 94.894981,194.895782 
	C94.894981,194.895782 94.815002,194.891846 94.801933,194.854004 
z"/>
<path fill="#FEFFFF" opacity="1.000000" stroke="none" 
	d="
M124.824425,161.123215 
	C124.692253,168.868118 124.594208,176.613846 124.404099,184.357330 
	C124.356155,186.310120 124.013817,188.255692 123.491570,190.469055 
	C123.173866,180.933884 123.171349,171.134201 123.747215,161.221756 
	C124.325600,161.108978 124.824425,161.123215 124.824425,161.123215 
z"/>
<path fill="#3B7086" opacity="1.000000" stroke="none" 
	d="
M220.043823,23.963894 
	C220.907516,23.700422 221.771194,23.436953 222.958481,23.060841 
	C223.699921,23.281073 224.117783,23.613949 224.850311,24.372046 
	C225.230286,24.998354 225.295578,25.199442 225.304016,25.616488 
	C225.247192,25.832447 225.226074,26.284250 225.226074,26.284250 
	C225.002258,26.239267 224.778427,26.194284 223.925201,26.019997 
	C222.907379,25.779922 222.518921,25.669157 221.926468,25.405420 
	C221.402725,25.315262 221.082962,25.378075 220.398926,25.447495 
	C218.598694,25.618465 217.162766,25.782831 215.726822,25.947197 
	C215.726822,25.947197 215.420807,26.084396 214.962799,25.717505 
	C210.644165,25.246130 206.783524,25.141649 202.922882,25.037167 
	C202.180023,24.988838 201.437164,24.940512 200.332977,24.799473 
	C200.805740,24.483906 201.639832,24.261049 203.263062,24.017008 
	C209.382736,23.985182 214.713272,23.974537 220.043823,23.963894 
z"/>
<path fill="#D7DFE0" opacity="1.000000" stroke="none" 
	d="
M228.649689,132.962891 
	C229.107300,141.153046 229.139450,149.588577 229.283936,158.022171 
	C229.326080,160.481781 228.497742,160.989822 226.291031,159.432968 
	C226.753906,157.906830 227.867371,156.707275 227.910004,155.470810 
	C228.165665,148.054413 228.175125,140.629547 228.649689,132.962891 
z"/>
<path fill="#3B7086" opacity="1.000000" stroke="none" 
	d="
M291.159790,216.357483 
	C291.709808,216.238556 292.162628,216.523773 293.175262,216.882034 
	C294.438507,216.592773 295.141907,216.230469 295.845337,215.868164 
	C295.883026,216.722839 295.920746,217.577530 295.992126,218.860428 
	C296.034119,219.577911 295.914062,219.796722 295.128052,219.988129 
	C294.062347,220.428284 293.534149,220.825409 293.005951,221.222534 
	C292.657593,223.227463 292.309204,225.232391 291.504608,227.633011 
	C290.794189,228.053345 290.539978,228.078003 290.300781,227.779846 
	C290.366913,226.812836 290.418030,226.168640 290.532959,225.224121 
	C290.067566,224.325394 289.538361,223.726990 289.009155,223.128586 
	C289.693604,221.006256 290.378082,218.883942 291.159790,216.357483 
z"/>
<path fill="#5E8799" opacity="1.000000" stroke="none" 
	d="
M11.708036,142.028656 
	C11.997203,142.343674 11.985628,142.511856 11.674226,143.047638 
	C10.921596,144.325348 10.468791,145.235489 9.911559,146.487000 
	C8.818625,149.220383 7.830120,151.612366 6.552245,154.002075 
	C5.877037,153.999298 5.491199,153.998795 5.105360,153.998276 
	C6.801552,149.831619 8.494757,145.663696 10.242279,141.518692 
	C10.257557,141.482452 11.002843,141.753983 11.708036,142.028656 
z"/>
<path fill="#5E8799" opacity="1.000000" stroke="none" 
	d="
M144.614777,301.981598 
	C146.063110,302.160889 147.278244,302.365753 148.728546,302.856995 
	C148.786407,303.115265 148.609070,303.087189 147.851349,303.161926 
	C146.946030,303.677734 146.621124,304.090790 146.296204,304.503876 
	C146.894211,304.640717 147.492218,304.777557 148.090210,304.914398 
	C148.090210,304.914398 148.028061,304.998199 147.971130,305.232544 
	C148.245651,305.628479 148.577103,305.790070 148.908539,305.951660 
	C148.385406,306.585968 147.690567,307.839661 147.368027,307.750275 
	C145.733078,307.297028 144.194763,306.495178 142.308044,305.848328 
	C142.005692,305.209808 142.017868,304.538452 142.303467,303.455414 
	C143.030777,302.749756 143.484680,302.455750 143.938568,302.161713 
	C143.938568,302.161713 144.381592,302.007172 144.614777,301.981598 
z"/>
<path fill="#608999" opacity="1.000000" stroke="none" 
	d="
M27.160528,220.058823 
	C26.853998,216.114883 26.547466,212.170944 26.240936,208.227005 
	C26.721979,208.179535 27.203022,208.132050 27.684065,208.084579 
	C28.106222,212.083893 28.528379,216.083221 28.693027,220.538025 
	C28.435516,220.993530 28.037922,221.022797 27.922031,220.834991 
	C27.645905,220.390732 27.430700,220.194611 27.160528,220.058823 
z"/>
<path fill="#88A6B2" opacity="1.000000" stroke="none" 
	d="
M67.089935,173.359528 
	C67.359917,172.920776 67.575356,172.923950 68.105774,173.000641 
	C68.824776,177.160995 69.228806,181.247787 69.389557,185.589523 
	C68.442657,181.830124 67.739021,177.815781 67.089935,173.359528 
z"/>
<path fill="#457487" opacity="1.000000" stroke="none" 
	d="
M90.096100,31.038853 
	C90.726212,31.521271 91.356323,32.003689 91.965836,32.779739 
	C90.377098,33.886566 88.808960,34.699757 87.010925,34.948250 
	C86.211815,34.168106 85.642593,33.952656 85.055008,33.473122 
	C85.011223,32.857399 84.985825,32.505768 84.960419,32.154133 
	C85.412643,32.094929 85.864876,32.035721 86.962296,31.910639 
	C87.722618,31.530260 87.837738,31.215757 87.952850,30.901253 
	C87.952850,30.901253 87.987961,30.992296 88.267242,31.211033 
	C89.063057,31.299465 89.579575,31.169159 90.096100,31.038853 
z"/>
<path fill="#558092" opacity="1.000000" stroke="none" 
	d="
M29.099848,77.413971 
	C29.914337,77.548195 30.675974,78.110466 31.686821,78.835846 
	C31.289391,80.461334 30.642750,81.923698 30.060505,84.109283 
	C30.031250,85.549553 29.937597,86.266609 29.843945,86.983658 
	C29.562834,86.166611 29.281723,85.349564 28.977970,84.196823 
	C28.985884,81.854759 29.016439,79.848389 29.099848,77.413971 
z"/>
<path fill="#628A9A" opacity="1.000000" stroke="none" 
	d="
M5.070756,154.454895 
	C5.491199,153.998795 5.877037,153.999298 6.622455,154.401123 
	C6.664463,157.172424 6.346891,159.542419 6.029320,161.912430 
	C5.822925,162.790771 5.616531,163.669128 5.135199,164.752502 
	C4.918890,161.608871 4.977522,158.260193 5.070756,154.454895 
z"/>
<path fill="#D7DFE0" opacity="1.000000" stroke="none" 
	d="
M290.469177,225.524445 
	C290.418030,226.168640 290.366913,226.812836 290.189728,228.007019 
	C290.077179,229.061172 290.090698,229.565323 290.054382,230.421570 
	C289.975708,231.484406 289.946808,232.195160 289.917969,232.905930 
	C289.317535,230.561935 288.717133,228.217957 288.466064,225.546051 
	C289.366638,225.320221 289.917908,225.422333 290.469177,225.524445 
z"/>
<path fill="#457487" opacity="1.000000" stroke="none" 
	d="
M290.883972,91.999344 
	C291.083679,91.998238 291.283386,91.997124 291.781128,92.024948 
	C292.045593,96.080162 292.012024,100.106445 291.944122,104.600540 
	C291.909790,105.068352 291.925659,105.015709 291.951111,105.017227 
	C291.649323,102.994156 291.322021,100.969551 291.020477,98.095978 
	C290.992126,95.497780 290.938049,93.748558 290.883972,91.999344 
z"/>
<path fill="#3B7086" opacity="1.000000" stroke="none" 
	d="
M90.405754,295.159576 
	C92.092484,294.990143 94.156120,294.935913 96.216766,295.199554 
	C94.403412,295.436554 92.593033,295.355682 90.405754,295.159576 
z"/>
<path fill="#FEFFFF" opacity="1.000000" stroke="none" 
	d="
M215.953461,26.320236 
	C217.162766,25.782831 218.598694,25.618465 220.603241,25.597855 
	C221.491379,25.680538 221.810928,25.619463 222.130463,25.558390 
	C222.518921,25.669157 222.907379,25.779922 223.584900,25.981621 
	C223.873978,26.072552 223.909958,26.538418 223.944427,26.769394 
	C221.379303,26.898005 218.779709,26.795639 215.953461,26.320236 
z"/>
<path fill="#92ACB8" opacity="1.000000" stroke="none" 
	d="
M203.117935,25.427498 
	C206.783524,25.141649 210.644165,25.246130 214.809631,25.649256 
	C211.180649,25.904541 207.246811,25.861185 203.117935,25.427498 
z"/>
<path fill="#6990A0" opacity="1.000000" stroke="none" 
	d="
M145.914001,5.161019 
	C146.898453,5.255526 147.882889,5.350031 148.867340,5.444537 
	C148.889481,5.903342 148.911606,6.362147 148.933746,6.820952 
	C147.148926,6.929090 145.364105,7.037227 143.454010,6.769067 
	C144.190475,5.982187 145.052246,5.571603 145.914001,5.161019 
z"/>
<path fill="#3B7086" opacity="1.000000" stroke="none" 
	d="
M292.888428,88.519882 
	C292.255249,89.010223 291.477325,89.176697 290.445679,89.218361 
	C290.143127,88.915390 290.094330,88.737228 290.014160,88.283661 
	C289.955139,87.256027 289.927460,86.503792 289.926147,85.374939 
	C290.175629,84.453339 290.398682,83.908348 290.877258,83.210602 
	C291.669769,84.770561 292.206726,86.483284 292.888428,88.519882 
z"/>
<path fill="#558092" opacity="1.000000" stroke="none" 
	d="
M304.984863,110.985222 
	C304.998199,110.526192 305.011505,110.067154 305.087769,109.267410 
	C305.150726,108.926697 305.126038,108.976685 305.101135,108.980530 
	C305.505981,112.318962 305.935791,115.653542 306.365570,118.988129 
	C306.031128,119.050705 305.696655,119.113281 305.362213,119.175858 
	C305.244415,118.699188 305.126617,118.222527 305.004913,116.967453 
	C304.995605,114.454430 304.990234,112.719826 304.984863,110.985222 
z"/>
<path fill="#3B7086" opacity="1.000000" stroke="none" 
	d="
M308.216919,180.950546 
	C307.675873,180.595917 307.344116,180.081024 306.995972,179.252228 
	C306.970306,178.213211 306.961060,177.488098 306.940613,176.400574 
	C307.603210,176.448883 308.276978,176.859650 308.987061,177.590942 
	C309.011444,178.361313 308.999512,178.811172 309.005463,179.598083 
	C308.824280,180.220200 308.625214,180.505234 308.216919,180.950546 
z"/>
<path fill="#92ACB8" opacity="1.000000" stroke="none" 
	d="
M27.104179,220.480408 
	C27.430700,220.194611 27.645905,220.390732 27.915596,221.275406 
	C27.895048,224.245865 27.765041,226.588074 27.635035,228.930298 
	C27.398413,228.425720 27.161793,227.921158 26.897261,227.133713 
	C26.928843,224.867905 26.988337,222.884949 27.104179,220.480408 
z"/>
<path fill="#6990A0" opacity="1.000000" stroke="none" 
	d="
M233.244202,284.305420 
	C233.016861,283.992645 232.789520,283.679840 232.327927,283.194244 
	C233.118637,282.075134 234.143585,281.128815 235.168533,280.182465 
	C235.150299,280.936890 235.132065,281.691284 234.744385,282.848999 
	C233.998032,283.603333 233.621124,283.954376 233.244202,284.305420 
z"/>
<path fill="#457487" opacity="1.000000" stroke="none" 
	d="
M27.732239,228.943085 
	C27.765041,226.588074 27.895048,224.245865 28.031487,221.463226 
	C28.037922,221.022797 28.435516,220.993530 28.634083,220.975937 
	C28.892086,221.396408 28.951523,221.834473 29.002071,223.038376 
	C28.990120,225.537399 28.987062,227.270569 28.743221,229.001816 
	C28.502439,228.999878 28.020861,228.998337 28.020861,228.998337 
	C28.020861,228.998337 27.829439,228.955872 27.732239,228.943085 
z"/>
<path fill="#3B7086" opacity="1.000000" stroke="none" 
	d="
M233.712494,25.139906 
	C233.515854,25.464643 233.006317,25.718231 231.813995,26.002489 
	C230.093613,25.981045 229.056015,25.928930 228.030151,25.639397 
	C228.041870,25.401981 228.026459,24.926819 228.018890,24.730368 
	C228.011307,24.533916 227.998581,24.140928 227.998581,24.140930 
	C228.442673,24.093323 228.886765,24.045715 229.850372,24.299969 
	C230.953186,24.726645 231.536484,24.851456 232.119797,24.976269 
	C232.546402,25.007097 232.972992,25.037926 233.712494,25.139906 
z"/>
<path fill="#92ACB8" opacity="1.000000" stroke="none" 
	d="
M109.092743,131.530945 
	C107.691856,132.004776 106.305611,132.086639 104.499550,132.106049 
	C106.846535,129.348587 107.089935,129.304794 109.092743,131.530945 
z"/>
<path fill="#EFEFEF" opacity="1.000000" stroke="none" 
	d="
M29.912960,87.390533 
	C29.937597,86.266609 30.031250,85.549553 30.103531,84.470459 
	C30.331751,86.635956 30.581341,89.163513 30.442566,91.808945 
	C30.030125,90.550354 30.006050,89.173889 29.912960,87.390533 
z"/>
<path fill="#3B7086" opacity="1.000000" stroke="none" 
	d="
M27.973667,229.328674 
	C28.020861,228.998337 28.502439,228.999878 28.858967,229.182922 
	C29.346495,229.642410 29.558535,229.824493 29.851612,229.912201 
	C29.851612,229.912201 30.032127,230.335922 30.027870,230.565948 
	C29.961447,231.533768 29.899282,232.271576 29.588411,233.062729 
	C28.950857,232.612091 28.562012,232.108109 28.074532,231.297638 
	C27.959423,230.547089 27.942949,230.103043 27.973667,229.328674 
z"/>
<path fill="#A5BDC3" opacity="1.000000" stroke="none" 
	d="
M29.890133,229.494110 
	C29.558535,229.824493 29.346495,229.642410 29.099751,229.184845 
	C28.987062,227.270569 28.990120,225.537399 29.006756,223.371094 
	C29.323105,224.983994 29.625881,227.029999 29.890133,229.494110 
z"/>
<path fill="#D7DFE0" opacity="1.000000" stroke="none" 
	d="
M233.405182,284.509888 
	C233.621124,283.954376 233.998032,283.603333 234.616852,283.162628 
	C236.100235,283.470337 237.341736,283.867737 238.350708,284.552979 
	C237.097168,284.955383 236.076157,285.069916 235.055145,285.184448 
	C234.558807,285.027740 234.062469,284.871033 233.405182,284.509888 
z"/>
<path fill="#D7DFE0" opacity="1.000000" stroke="none" 
	d="
M145.542572,5.101933 
	C145.052246,5.571603 144.190475,5.982187 143.120911,6.600211 
	C142.526917,6.462970 142.140701,6.118290 141.754501,5.773610 
	C142.893372,5.530022 144.032257,5.286435 145.542572,5.101933 
z"/>
<path fill="#3B7086" opacity="1.000000" stroke="none" 
	d="
M235.050323,285.368347 
	C236.076157,285.069916 237.097168,284.955383 238.503418,284.864929 
	C239.420959,285.025848 239.953262,285.162750 240.485565,285.299622 
	C240.458130,285.486389 240.430695,285.673126 240.403259,285.859894 
	C239.530914,285.905396 238.658554,285.950897 237.095612,285.986145 
	C235.945160,285.957184 235.485275,285.938446 235.025391,285.919739 
	C235.025391,285.919708 235.045502,285.552277 235.050323,285.368347 
z"/>
<path fill="#92ACB8" opacity="1.000000" stroke="none" 
	d="
M304.627136,111.144455 
	C304.990234,112.719826 304.995605,114.454430 304.991577,116.622589 
	C304.744537,115.138657 304.506958,113.221176 304.627136,111.144455 
z"/>
<path fill="#457487" opacity="1.000000" stroke="none" 
	d="
M196.598190,12.111660 
	C197.028793,12.177412 197.026855,12.499938 196.603897,12.726645 
	C194.472183,13.005779 192.763443,13.058207 191.054688,13.110634 
	C191.054688,13.110635 190.975830,12.664408 190.961716,12.438280 
	C192.687592,12.156737 194.427597,12.101323 196.598190,12.111660 
z"/>
<path fill="#809EAB" opacity="1.000000" stroke="none" 
	d="
M290.707336,92.007904 
	C290.938049,93.748558 290.992126,95.497780 291.006897,97.682999 
	C290.662384,96.360718 290.357178,94.602417 290.114563,92.434204 
	C290.177155,92.024300 290.530731,92.016457 290.707336,92.007904 
z"/>
<path fill="#4D7B8D" opacity="1.000000" stroke="none" 
	d="
M305.076233,125.555367 
	C304.816620,125.849640 304.505035,125.762360 303.748260,125.480209 
	C303.681549,124.079208 304.060028,122.873062 304.704437,120.819359 
	C304.851562,122.822159 304.937927,123.997986 305.076233,125.555367 
z"/>
<path fill="#7094A3" opacity="1.000000" stroke="none" 
	d="
M290.532959,225.224121 
	C289.917908,225.422333 289.366638,225.320221 288.530151,225.161026 
	C288.288055,224.445450 288.331177,223.786972 288.691711,223.128540 
	C289.538361,223.726990 290.067566,224.325394 290.532959,225.224121 
z"/>
<path fill="#7094A3" opacity="1.000000" stroke="none" 
	d="
M290.104187,230.069489 
	C290.090698,229.565323 290.077179,229.061172 290.174744,228.329834 
	C290.539978,228.078003 290.794189,228.053345 291.431458,228.027756 
	C291.767426,228.955078 291.720367,229.883347 291.252533,230.741333 
	C290.667633,230.375702 290.425110,230.175186 290.104187,230.069489 
z"/>
<path fill="#6D92A1" opacity="1.000000" stroke="none" 
	d="
M84.603607,32.091286 
	C84.985825,32.505768 85.011223,32.857399 84.725418,33.596809 
	C83.953552,34.073868 83.492912,34.163151 83.011986,34.147503 
	C82.991707,34.042568 82.957344,33.831596 82.823196,33.639439 
	C82.456001,33.229965 82.187317,33.074020 81.883011,32.979446 
	C82.670937,32.662441 83.458862,32.345440 84.603607,32.091286 
z"/>
<path fill="#3B7086" opacity="1.000000" stroke="none" 
	d="
M290.054382,230.421570 
	C290.425110,230.175186 290.667633,230.375702 290.929077,230.891327 
	C291.019379,232.141830 291.012329,233.172012 291.043213,234.587448 
	C290.887115,234.978928 290.693085,234.985184 290.208496,234.971436 
	C289.946381,234.496033 289.974731,234.040604 289.960510,233.245560 
	C289.946808,232.195160 289.975708,231.484406 290.054382,230.421570 
z"/>
<path fill="#D7DFE0" opacity="1.000000" stroke="none" 
	d="
M83.032265,34.252438 
	C83.492912,34.163151 83.953552,34.073868 84.743790,33.860897 
	C85.642593,33.952656 86.211815,34.168106 86.872162,34.685780 
	C85.864151,34.981865 84.765022,34.975723 83.354584,34.757454 
	C83.043282,34.545322 83.032265,34.252438 83.032265,34.252438 
z"/>
<path fill="#5C8697" opacity="1.000000" stroke="none" 
	d="
M100.645294,184.897522 
	C100.803375,185.487717 100.623642,186.113571 100.181046,186.944275 
	C100.047958,186.410477 100.177719,185.671829 100.645294,184.897522 
z"/>
<path fill="#88A6B2" opacity="1.000000" stroke="none" 
	d="
M69.863174,132.956345 
	C69.708572,133.760437 69.151169,134.510696 68.260971,135.094711 
	C68.438904,134.253143 68.949646,133.577835 69.863174,132.956345 
z"/>
<path fill="#A5BDC3" opacity="1.000000" stroke="none" 
	d="
M83.011986,34.147503 
	C83.032265,34.252438 83.043282,34.545322 83.040329,34.691841 
	C81.849945,34.823521 80.662498,34.808681 79.703560,34.449181 
	C80.940491,34.013546 81.948914,33.922569 82.957344,33.831596 
	C82.957344,33.831596 82.991707,34.042568 83.011986,34.147503 
z"/>
<path fill="#4A788C" opacity="1.000000" stroke="none" 
	d="
M255.825317,182.648483 
	C255.493683,182.861588 255.301758,182.671967 255.077911,182.246323 
	C255.113419,181.196655 255.228836,180.334427 255.344254,179.472214 
	C255.535187,179.490997 255.726120,179.509781 255.917053,179.528580 
	C255.917053,180.450500 255.917053,181.372406 255.825317,182.648483 
z"/>
<path fill="#3B7086" opacity="1.000000" stroke="none" 
	d="
M82.823196,33.639435 
	C81.948914,33.922569 80.940491,34.013546 79.552460,34.125439 
	C79.849464,33.772636 80.526070,33.398918 81.542847,33.002323 
	C82.187317,33.074020 82.456001,33.229965 82.823196,33.639435 
z"/>
<path fill="#D7DFE0" opacity="1.000000" stroke="none" 
	d="
M148.067413,304.605194 
	C147.492218,304.777557 146.894211,304.640717 146.296204,304.503876 
	C146.621124,304.090790 146.946030,303.677734 147.582077,303.165741 
	C147.943680,303.476532 147.994156,303.886261 148.067413,304.605194 
z"/>
<path fill="#D7DFE0" opacity="1.000000" stroke="none" 
	d="
M231.163269,287.362885 
	C231.812057,287.036469 232.543961,287.036285 233.641785,287.030823 
	C233.087265,287.246704 232.166824,287.467896 231.163269,287.362885 
z"/>
<path fill="#3B7086" opacity="1.000000" stroke="none" 
	d="
M129.940506,305.975861 
	C130.219208,306.186462 130.497925,306.397095 130.872803,306.854889 
	C130.550110,307.065491 130.131256,307.028900 129.397217,307.006531 
	C128.770401,306.941284 128.488220,306.802124 128.408020,306.344727 
	C129.033875,306.049408 129.487198,306.012634 129.940506,305.975861 
z"/>
<path fill="#92ACB8" opacity="1.000000" stroke="none" 
	d="
M143.584564,302.091064 
	C143.484680,302.455750 143.030777,302.749756 142.307953,303.119690 
	C141.778290,303.034698 141.549530,302.836823 141.225006,302.415100 
	C141.808334,302.158997 142.519424,302.089722 143.584564,302.091064 
z"/>
<path fill="#457487" opacity="1.000000" stroke="none" 
	d="
M227.629028,24.081306 
	C227.998581,24.140928 228.011307,24.533916 227.676392,24.762718 
	C226.681274,25.127855 226.021057,25.264191 225.360855,25.400528 
	C225.295578,25.199442 225.230286,24.998354 225.098434,24.487841 
	C225.774414,24.126171 226.516937,24.073927 227.629028,24.081306 
z"/>
<path fill="#5C8697" opacity="1.000000" stroke="none" 
	d="
M109.344406,202.962479 
	C109.704170,203.022629 110.315018,203.183685 110.934044,203.608429 
	C110.493301,203.602524 110.044395,203.332962 109.344406,202.962479 
z"/>
<path fill="#668D9D" opacity="1.000000" stroke="none" 
	d="
M272.312744,261.907806 
	C272.510712,261.294006 273.017975,260.696899 273.847595,260.078491 
	C273.653992,260.679596 273.138031,261.302063 272.312744,261.907806 
z"/>
<path fill="#4A788C" opacity="1.000000" stroke="none" 
	d="
M29.133842,235.345642 
	C29.466124,235.761810 29.719296,236.511642 29.988716,237.568451 
	C29.688221,237.143387 29.371479,236.411346 29.133842,235.345642 
z"/>
<path fill="#A5BDC3" opacity="1.000000" stroke="none" 
	d="
M18.351543,187.988846 
	C18.005234,187.952835 17.975960,187.757278 17.886566,187.270935 
	C18.022692,186.468338 18.218939,185.956528 18.621437,185.262878 
	C18.774654,185.997147 18.721617,186.913223 18.351543,187.988846 
z"/>
<path fill="#5C8697" opacity="1.000000" stroke="none" 
	d="
M239.834778,196.687622 
	C239.409470,196.447617 238.942093,195.936691 238.669464,195.253372 
	C239.173691,195.526215 239.483185,195.971451 239.834778,196.687622 
z"/>
<path fill="#6990A0" opacity="1.000000" stroke="none" 
	d="
M235.015381,286.156372 
	C235.485275,285.938446 235.945160,285.957184 236.750214,285.998779 
	C236.615128,286.351746 236.134888,286.681824 235.329971,286.939270 
	C235.005295,286.866638 235.005356,286.392975 235.015381,286.156372 
z"/>
<path fill="#D7DFE0" opacity="1.000000" stroke="none" 
	d="
M90.109695,30.744942 
	C89.579575,31.169159 89.063057,31.299465 88.235504,31.173969 
	C88.394997,30.598717 88.865532,30.279263 89.661423,29.919218 
	C90.032280,30.069427 90.077782,30.260227 90.109695,30.744942 
z"/>
<path fill="#5C8697" opacity="1.000000" stroke="none" 
	d="
M94.556015,195.031311 
	C94.723434,195.480972 94.551888,196.066177 94.081772,196.777893 
	C93.927826,196.325241 94.072441,195.746033 94.556015,195.031311 
z"/>
<path fill="#6990A0" opacity="1.000000" stroke="none" 
	d="
M293.328430,221.127319 
	C293.534149,220.825409 294.062347,220.428284 294.937683,220.032822 
	C294.740204,220.367035 294.195587,220.699570 293.328430,221.127319 
z"/>
<path fill="#7094A3" opacity="1.000000" stroke="none" 
	d="
M232.008591,24.661499 
	C231.536484,24.851456 230.953186,24.726645 230.181244,24.358192 
	C230.627533,24.191946 231.262451,24.269339 232.008591,24.661499 
z"/>
<path fill="#5C8697" opacity="1.000000" stroke="none" 
	d="
M92.472275,197.572205 
	C92.544868,197.825333 92.377579,198.015030 92.091492,198.068192 
	C91.972710,197.931671 92.232391,197.508789 92.472275,197.572205 
z"/>
<path fill="#D7DFE0" opacity="1.000000" stroke="none" 
	d="
M148.926498,305.685547 
	C148.577103,305.790070 148.245651,305.628479 147.987610,305.183105 
	C148.355499,305.072662 148.649979,305.246063 148.926498,305.685547 
z"/>
<path fill="#5C8697" opacity="1.000000" stroke="none" 
	d="
M93.537918,196.719742 
	C93.709618,197.150314 93.518585,197.437851 93.079628,197.819763 
	C92.946198,197.468307 93.060699,197.022522 93.537918,196.719742 
z"/>
<path fill="#5C8697" opacity="1.000000" stroke="none" 
	d="
M103.025871,196.247482 
	C103.207306,196.204727 103.480568,196.418732 103.875969,196.873413 
	C103.704643,196.910812 103.411171,196.707535 103.025871,196.247482 
z"/>
<path fill="#D7DFE0" opacity="1.000000" stroke="none" 
	d="
M87.706573,30.989321 
	C87.837738,31.215757 87.722618,31.530260 87.305557,31.904236 
	C87.155846,31.668268 87.308075,31.372828 87.706573,30.989321 
z"/>
<path fill="#558092" opacity="1.000000" stroke="none" 
	d="
M231.017975,194.214661 
	C231.218842,194.104355 231.472397,194.286194 231.814026,194.724182 
	C231.579025,194.919418 231.301865,194.761581 231.017975,194.214661 
z"/>
<path fill="#82A3B1" opacity="1.000000" stroke="none" 
	d="
M124.987320,160.881958 
	C124.824425,161.123215 124.325600,161.108978 124.114777,160.975800 
	C124.121536,160.536804 124.339111,160.231003 124.855225,159.991837 
	C125.152596,160.252548 125.151413,160.446609 124.987320,160.881958 
z"/>
<path fill="#000000" opacity="1.000000" stroke="none" 
	d="
M225.116577,289.105286 
	C219.534393,295.656708 214.747955,303.648010 205.192184,305.392395 
	C201.364929,306.091064 197.377991,305.914856 193.236725,305.505157 
	C202.005951,296.589417 212.610138,291.332916 225.116577,289.105286 
z"/>
<path fill="#000000" opacity="1.000000" stroke="none" 
	d="
M122.971863,17.997261 
	C111.660027,26.560303 101.599640,30.387426 95.832253,28.038948 
	C103.870171,18.515814 112.967987,11.830854 127.342361,15.330091 
	C126.003433,16.188560 124.664505,17.047029 122.971863,17.997261 
z"/>
<path fill="#000000" opacity="1.000000" stroke="none" 
	d="
M190.886917,13.442547 
	C192.763443,13.058207 194.472183,13.005779 196.603729,12.887911 
	C205.787155,13.908798 213.848404,16.543591 220.060852,23.598959 
	C214.713272,23.974537 209.382736,23.985182 203.593872,23.981472 
	C196.402130,22.018318 189.668716,20.069515 182.935303,18.120714 
	C182.975571,17.648495 183.015839,17.176275 183.056122,16.704056 
	C185.610458,15.727524 188.164810,14.750992 190.886917,13.442547 
z"/>
<path fill="#000000" opacity="1.000000" stroke="none" 
	d="
M68.023849,277.007812 
	C66.642754,274.309937 65.343544,271.976105 63.851517,269.295898 
	C72.340843,270.071045 85.857964,281.399628 91.420395,291.874664 
	C84.052544,295.042053 74.699394,289.223938 68.023849,277.007812 
z"/>
<path fill="#000000" opacity="1.000000" stroke="none" 
	d="
M228.018433,25.876812 
	C229.056015,25.928930 230.093613,25.981045 231.522491,26.029083 
	C236.793594,29.072786 242.241470,31.508392 246.383194,35.351582 
	C250.053802,38.757603 252.272446,43.728355 255.709030,48.871906 
	C248.590744,49.153843 244.523590,45.223587 240.765488,41.953690 
	C235.870621,37.694717 231.988663,32.271595 227.415558,26.897438 
	C227.446335,26.255892 227.732376,26.066351 228.018433,25.876812 
z"/>
<path fill="#7094A3" opacity="1.000000" stroke="none" 
	d="
M228.030151,25.639397 
	C227.732376,26.066351 227.446335,26.255892 227.122681,26.708557 
	C226.587097,26.854633 226.089142,26.737581 225.408630,26.452389 
	C225.226074,26.284250 225.247192,25.832447 225.304016,25.616486 
	C226.021057,25.264191 226.681274,25.127855 227.683960,24.959169 
	C228.026459,24.926819 228.041870,25.401981 228.030151,25.639397 
z"/>
<path fill="#000000" opacity="1.000000" stroke="none" 
	d="
M295.865417,215.508453 
	C295.141907,216.230469 294.438507,216.592773 293.430420,216.963470 
	C293.894806,213.025253 294.007629,208.793335 295.572845,205.192825 
	C298.610535,198.205170 302.464386,191.572311 306.002991,184.429779 
	C306.699829,184.578140 307.900818,185.026794 307.969727,185.609375 
	C309.304535,196.893631 305.958954,206.358154 296.845947,213.516403 
	C296.383636,213.879532 296.199280,214.596542 295.865417,215.508453 
z"/>
<path fill="#000000" opacity="1.000000" stroke="none" 
	d="
M287.968597,82.446793 
	C279.921692,80.275375 274.343842,74.492088 269.243195,68.270782 
	C267.044922,65.589546 265.629578,62.266388 263.540680,59.078239 
	C263.540924,58.327950 263.940338,57.185905 264.165558,57.219284 
	C274.998016,58.824757 286.233154,70.583199 287.968597,82.446793 
z"/>
<path fill="#000000" opacity="1.000000" stroke="none" 
	d="
M130.040680,305.673370 
	C129.487198,306.012634 129.033875,306.049408 128.249054,306.168549 
	C122.170906,305.480286 116.269157,305.266632 110.736877,303.726135 
	C107.517036,302.829529 104.889458,299.806030 101.924194,297.383972 
	C106.263687,296.682068 110.674370,296.335724 115.545219,295.937927 
	C122.912819,297.867950 129.820267,299.849396 136.727707,301.830841 
	C136.760010,302.231262 136.792328,302.631714 136.824646,303.032135 
	C134.596710,303.811737 132.368774,304.591309 130.040680,305.673370 
z"/>
<path fill="#000000" opacity="1.000000" stroke="none" 
	d="
M6.370019,162.078705 
	C6.346891,159.542419 6.664463,157.172424 6.911825,154.403381 
	C7.830120,151.612366 8.818625,149.220383 10.184193,146.381165 
	C11.037320,145.652847 11.513386,145.371735 11.989452,145.090637 
	C13.927299,152.156616 15.865147,159.222610 17.999386,166.632111 
	C17.791195,171.999451 17.386612,177.023254 16.915981,182.483154 
	C14.907238,180.337265 12.470658,177.984589 11.139926,175.118484 
	C9.239052,171.024414 8.147761,166.554428 6.370019,162.078705 
z"/>
<path fill="#D7DFE0" opacity="1.000000" stroke="none" 
	d="
M12.014666,144.773026 
	C11.513386,145.371735 11.037320,145.652847 10.288620,146.039780 
	C10.468791,145.235489 10.921596,144.325348 11.661611,143.300201 
	C11.979175,143.608597 12.009527,144.031998 12.014666,144.773026 
z"/>
<path fill="#5C8697" opacity="1.000000" stroke="none" 
	d="
M18.195248,162.668365 
	C18.305908,162.306931 18.452372,162.130188 18.598833,161.953445 
	C18.669003,162.211746 18.739170,162.470062 18.809338,162.728363 
	C18.616575,162.769943 18.423813,162.811508 18.195248,162.668365 
z"/>
<path fill="#92ACB8" opacity="1.000000" stroke="none" 
	d="
M221.926468,25.405418 
	C221.810928,25.619463 221.491379,25.680538 220.967529,25.591249 
	C221.082962,25.378075 221.402725,25.315262 221.926468,25.405418 
z"/>
</svg>